solid Ensamblaje perno 1
   facet normal 0.000000e+00 -9.961947e-01 -8.715613e-02
      outer loop
         vertex 7.999968e-02 6.580797e+01 6.516790e+00
         vertex 1.608000e+01 6.579278e+01 6.690439e+00
         vertex 7.999968e-02 6.579278e+01 6.690439e+00
      endloop
   endfacet
   facet normal 0.000000e+00 -9.961947e-01 8.715613e-02
      outer loop
         vertex 1.608000e+01 6.579278e+01 6.690439e+00
         vertex 1.608000e+01 6.580797e+01 6.864087e+00
         vertex 7.999968e-02 6.579278e+01 6.690439e+00
      endloop
   endfacet
   facet normal 0.000000e+00 -9.961947e-01 8.715613e-02
      outer loop
         vertex 1.608000e+01 6.580797e+01 6.864087e+00
         vertex 7.999968e-02 6.580797e+01 6.864087e+00
         vertex 7.999968e-02 6.579278e+01 6.690439e+00
      endloop
   endfacet
   facet normal -1.000000e+00 0.000000e+00 0.000000e+00
      outer loop
         vertex 7.999968e-02 6.679278e+01 6.690439e+00
         vertex 7.999968e-02 6.580797e+01 6.516790e+00
         vertex 7.999968e-02 6.579278e+01 6.690439e+00
      endloop
   endfacet
   facet normal -1.000000e+00 0.000000e+00 -0.000000e+00
      outer loop
         vertex 7.999968e-02 6.580797e+01 6.864087e+00
         vertex 7.999968e-02 6.679278e+01 6.690439e+00
         vertex 7.999968e-02 6.579278e+01 6.690439e+00
      endloop
   endfacet
   facet normal 0.000000e+00 -9.961947e-01 -8.715613e-02
      outer loop
         vertex 7.999968e-02 6.580797e+01 6.516790e+00
         vertex 1.608000e+01 6.580797e+01 6.516790e+00
         vertex 1.608000e+01 6.579278e+01 6.690439e+00
      endloop
   endfacet
   facet normal 1.000000e+00 0.000000e+00 0.000000e+00
      outer loop
         vertex 1.608000e+01 6.679278e+01 6.690439e+00
         vertex 1.608000e+01 6.580797e+01 6.864087e+00
         vertex 1.608000e+01 6.579278e+01 6.690439e+00
      endloop
   endfacet
   facet normal 1.000000e+00 0.000000e+00 -0.000000e+00
      outer loop
         vertex 1.608000e+01 6.580797e+01 6.516790e+00
         vertex 1.608000e+01 6.679278e+01 6.690439e+00
         vertex 1.608000e+01 6.579278e+01 6.690439e+00
      endloop
   endfacet
   facet normal 0.000000e+00 -9.659258e-01 -2.588190e-01
      outer loop
         vertex 7.999968e-02 6.585309e+01 6.348418e+00
         vertex 1.608000e+01 6.580797e+01 6.516790e+00
         vertex 7.999968e-02 6.580797e+01 6.516790e+00
      endloop
   endfacet
   facet normal -1.000000e+00 0.000000e+00 0.000000e+00
      outer loop
         vertex 7.999968e-02 6.679278e+01 6.690439e+00
         vertex 7.999968e-02 6.585309e+01 6.348418e+00
         vertex 7.999968e-02 6.580797e+01 6.516790e+00
      endloop
   endfacet
   facet normal 0.000000e+00 -9.659258e-01 -2.588190e-01
      outer loop
         vertex 7.999968e-02 6.585309e+01 6.348418e+00
         vertex 1.608000e+01 6.585309e+01 6.348418e+00
         vertex 1.608000e+01 6.580797e+01 6.516790e+00
      endloop
   endfacet
   facet normal 1.000000e+00 0.000000e+00 -0.000000e+00
      outer loop
         vertex 1.608000e+01 6.585309e+01 6.348418e+00
         vertex 1.608000e+01 6.679278e+01 6.690439e+00
         vertex 1.608000e+01 6.580797e+01 6.516790e+00
      endloop
   endfacet
   facet normal 0.000000e+00 -9.659258e-01 2.588190e-01
      outer loop
         vertex 1.608000e+01 6.580797e+01 6.864087e+00
         vertex 1.608000e+01 6.585309e+01 7.032459e+00
         vertex 7.999968e-02 6.580797e+01 6.864087e+00
      endloop
   endfacet
   facet normal 0.000000e+00 -9.659258e-01 2.588190e-01
      outer loop
         vertex 1.608000e+01 6.585309e+01 7.032459e+00
         vertex 7.999968e-02 6.585309e+01 7.032459e+00
         vertex 7.999968e-02 6.580797e+01 6.864087e+00
      endloop
   endfacet
   facet normal -1.000000e+00 0.000000e+00 -0.000000e+00
      outer loop
         vertex 7.999968e-02 6.585309e+01 7.032459e+00
         vertex 7.999968e-02 6.679278e+01 6.690439e+00
         vertex 7.999968e-02 6.580797e+01 6.864087e+00
      endloop
   endfacet
   facet normal 1.000000e+00 0.000000e+00 0.000000e+00
      outer loop
         vertex 1.608000e+01 6.679278e+01 6.690439e+00
         vertex 1.608000e+01 6.585309e+01 7.032459e+00
         vertex 1.608000e+01 6.580797e+01 6.864087e+00
      endloop
   endfacet
   facet normal 0.000000e+00 -9.063078e-01 -4.226182e-01
      outer loop
         vertex 7.999968e-02 6.592675e+01 6.190439e+00
         vertex 1.608000e+01 6.585309e+01 6.348418e+00
         vertex 7.999968e-02 6.585309e+01 6.348418e+00
      endloop
   endfacet
   facet normal -1.000000e+00 0.000000e+00 0.000000e+00
      outer loop
         vertex 7.999968e-02 6.679278e+01 6.690439e+00
         vertex 7.999968e-02 6.592675e+01 6.190439e+00
         vertex 7.999968e-02 6.585309e+01 6.348418e+00
      endloop
   endfacet
   facet normal 0.000000e+00 -9.063078e-01 -4.226182e-01
      outer loop
         vertex 7.999968e-02 6.592675e+01 6.190439e+00
         vertex 1.608000e+01 6.592675e+01 6.190439e+00
         vertex 1.608000e+01 6.585309e+01 6.348418e+00
      endloop
   endfacet
   facet normal 1.000000e+00 0.000000e+00 -0.000000e+00
      outer loop
         vertex 1.608000e+01 6.592675e+01 6.190439e+00
         vertex 1.608000e+01 6.679278e+01 6.690439e+00
         vertex 1.608000e+01 6.585309e+01 6.348418e+00
      endloop
   endfacet
   facet normal 0.000000e+00 -9.063078e-01 4.226182e-01
      outer loop
         vertex 1.608000e+01 6.585309e+01 7.032459e+00
         vertex 1.608000e+01 6.592675e+01 7.190439e+00
         vertex 7.999968e-02 6.585309e+01 7.032459e+00
      endloop
   endfacet
   facet normal 0.000000e+00 -9.063078e-01 4.226182e-01
      outer loop
         vertex 1.608000e+01 6.592675e+01 7.190439e+00
         vertex 7.999968e-02 6.592675e+01 7.190439e+00
         vertex 7.999968e-02 6.585309e+01 7.032459e+00
      endloop
   endfacet
   facet normal -1.000000e+00 0.000000e+00 -0.000000e+00
      outer loop
         vertex 7.999968e-02 6.592675e+01 7.190439e+00
         vertex 7.999968e-02 6.679278e+01 6.690439e+00
         vertex 7.999968e-02 6.585309e+01 7.032459e+00
      endloop
   endfacet
   facet normal 1.000000e+00 0.000000e+00 0.000000e+00
      outer loop
         vertex 1.608000e+01 6.679278e+01 6.690439e+00
         vertex 1.608000e+01 6.592675e+01 7.190439e+00
         vertex 1.608000e+01 6.585309e+01 7.032459e+00
      endloop
   endfacet
   facet normal 0.000000e+00 -8.191520e-01 -5.735765e-01
      outer loop
         vertex 7.999968e-02 6.602673e+01 6.047651e+00
         vertex 1.608000e+01 6.592675e+01 6.190439e+00
         vertex 7.999968e-02 6.592675e+01 6.190439e+00
      endloop
   endfacet
   facet normal -1.000000e+00 0.000000e+00 0.000000e+00
      outer loop
         vertex 7.999968e-02 6.679278e+01 6.690439e+00
         vertex 7.999968e-02 6.602673e+01 6.047651e+00
         vertex 7.999968e-02 6.592675e+01 6.190439e+00
      endloop
   endfacet
   facet normal 0.000000e+00 -8.191520e-01 -5.735765e-01
      outer loop
         vertex 7.999968e-02 6.602673e+01 6.047651e+00
         vertex 1.608000e+01 6.602673e+01 6.047651e+00
         vertex 1.608000e+01 6.592675e+01 6.190439e+00
      endloop
   endfacet
   facet normal 1.000000e+00 0.000000e+00 -0.000000e+00
      outer loop
         vertex 1.608000e+01 6.602673e+01 6.047651e+00
         vertex 1.608000e+01 6.679278e+01 6.690439e+00
         vertex 1.608000e+01 6.592675e+01 6.190439e+00
      endloop
   endfacet
   facet normal 0.000000e+00 -8.191520e-01 5.735765e-01
      outer loop
         vertex 1.608000e+01 6.592675e+01 7.190439e+00
         vertex 1.608000e+01 6.602673e+01 7.333226e+00
         vertex 7.999968e-02 6.592675e+01 7.190439e+00
      endloop
   endfacet
   facet normal 0.000000e+00 -8.191520e-01 5.735765e-01
      outer loop
         vertex 1.608000e+01 6.602673e+01 7.333226e+00
         vertex 7.999968e-02 6.602673e+01 7.333226e+00
         vertex 7.999968e-02 6.592675e+01 7.190439e+00
      endloop
   endfacet
   facet normal -1.000000e+00 0.000000e+00 -0.000000e+00
      outer loop
         vertex 7.999968e-02 6.602673e+01 7.333226e+00
         vertex 7.999968e-02 6.679278e+01 6.690439e+00
         vertex 7.999968e-02 6.592675e+01 7.190439e+00
      endloop
   endfacet
   facet normal 1.000000e+00 0.000000e+00 0.000000e+00
      outer loop
         vertex 1.608000e+01 6.679278e+01 6.690439e+00
         vertex 1.608000e+01 6.602673e+01 7.333226e+00
         vertex 1.608000e+01 6.592675e+01 7.190439e+00
      endloop
   endfacet
   facet normal 0.000000e+00 -7.071068e-01 -7.071068e-01
      outer loop
         vertex 7.999968e-02 6.614999e+01 5.924394e+00
         vertex 1.608000e+01 6.602673e+01 6.047651e+00
         vertex 7.999968e-02 6.602673e+01 6.047651e+00
      endloop
   endfacet
   facet normal -1.000000e+00 0.000000e+00 0.000000e+00
      outer loop
         vertex 7.999968e-02 6.679278e+01 6.690439e+00
         vertex 7.999968e-02 6.614999e+01 5.924394e+00
         vertex 7.999968e-02 6.602673e+01 6.047651e+00
      endloop
   endfacet
   facet normal 0.000000e+00 -7.071068e-01 -7.071068e-01
      outer loop
         vertex 7.999968e-02 6.614999e+01 5.924394e+00
         vertex 1.608000e+01 6.614999e+01 5.924394e+00
         vertex 1.608000e+01 6.602673e+01 6.047651e+00
      endloop
   endfacet
   facet normal 1.000000e+00 0.000000e+00 -0.000000e+00
      outer loop
         vertex 1.608000e+01 6.614999e+01 5.924394e+00
         vertex 1.608000e+01 6.679278e+01 6.690439e+00
         vertex 1.608000e+01 6.602673e+01 6.047651e+00
      endloop
   endfacet
   facet normal 0.000000e+00 -7.071068e-01 7.071068e-01
      outer loop
         vertex 1.608000e+01 6.602673e+01 7.333226e+00
         vertex 1.608000e+01 6.614999e+01 7.456483e+00
         vertex 7.999968e-02 6.602673e+01 7.333226e+00
      endloop
   endfacet
   facet normal 0.000000e+00 -7.071068e-01 7.071068e-01
      outer loop
         vertex 1.608000e+01 6.614999e+01 7.456483e+00
         vertex 7.999968e-02 6.614999e+01 7.456483e+00
         vertex 7.999968e-02 6.602673e+01 7.333226e+00
      endloop
   endfacet
   facet normal -1.000000e+00 0.000000e+00 -0.000000e+00
      outer loop
         vertex 7.999968e-02 6.614999e+01 7.456483e+00
         vertex 7.999968e-02 6.679278e+01 6.690439e+00
         vertex 7.999968e-02 6.602673e+01 7.333226e+00
      endloop
   endfacet
   facet normal 1.000000e+00 0.000000e+00 0.000000e+00
      outer loop
         vertex 1.608000e+01 6.679278e+01 6.690439e+00
         vertex 1.608000e+01 6.614999e+01 7.456483e+00
         vertex 1.608000e+01 6.602673e+01 7.333226e+00
      endloop
   endfacet
   facet normal 0.000000e+00 -5.735765e-01 -8.191520e-01
      outer loop
         vertex 7.999968e-02 6.629278e+01 5.824413e+00
         vertex 1.608000e+01 6.614999e+01 5.924394e+00
         vertex 7.999968e-02 6.614999e+01 5.924394e+00
      endloop
   endfacet
   facet normal -1.000000e+00 0.000000e+00 0.000000e+00
      outer loop
         vertex 7.999968e-02 6.679278e+01 6.690439e+00
         vertex 7.999968e-02 6.629278e+01 5.824413e+00
         vertex 7.999968e-02 6.614999e+01 5.924394e+00
      endloop
   endfacet
   facet normal 0.000000e+00 -5.735765e-01 -8.191520e-01
      outer loop
         vertex 7.999968e-02 6.629278e+01 5.824413e+00
         vertex 1.608000e+01 6.629278e+01 5.824413e+00
         vertex 1.608000e+01 6.614999e+01 5.924394e+00
      endloop
   endfacet
   facet normal 1.000000e+00 0.000000e+00 -0.000000e+00
      outer loop
         vertex 1.608000e+01 6.629278e+01 5.824413e+00
         vertex 1.608000e+01 6.679278e+01 6.690439e+00
         vertex 1.608000e+01 6.614999e+01 5.924394e+00
      endloop
   endfacet
   facet normal 0.000000e+00 -5.735765e-01 8.191520e-01
      outer loop
         vertex 1.608000e+01 6.614999e+01 7.456483e+00
         vertex 1.608000e+01 6.629278e+01 7.556464e+00
         vertex 7.999968e-02 6.614999e+01 7.456483e+00
      endloop
   endfacet
   facet normal 0.000000e+00 -5.735765e-01 8.191520e-01
      outer loop
         vertex 1.608000e+01 6.629278e+01 7.556464e+00
         vertex 7.999968e-02 6.629278e+01 7.556464e+00
         vertex 7.999968e-02 6.614999e+01 7.456483e+00
      endloop
   endfacet
   facet normal -1.000000e+00 0.000000e+00 -0.000000e+00
      outer loop
         vertex 7.999968e-02 6.629278e+01 7.556464e+00
         vertex 7.999968e-02 6.679278e+01 6.690439e+00
         vertex 7.999968e-02 6.614999e+01 7.456483e+00
      endloop
   endfacet
   facet normal 1.000000e+00 0.000000e+00 0.000000e+00
      outer loop
         vertex 1.608000e+01 6.679278e+01 6.690439e+00
         vertex 1.608000e+01 6.629278e+01 7.556464e+00
         vertex 1.608000e+01 6.614999e+01 7.456483e+00
      endloop
   endfacet
   facet normal 0.000000e+00 -4.226182e-01 -9.063078e-01
      outer loop
         vertex 7.999968e-02 6.645076e+01 5.750746e+00
         vertex 1.608000e+01 6.629278e+01 5.824413e+00
         vertex 7.999968e-02 6.629278e+01 5.824413e+00
      endloop
   endfacet
   facet normal -1.000000e+00 0.000000e+00 0.000000e+00
      outer loop
         vertex 7.999968e-02 6.679278e+01 6.690439e+00
         vertex 7.999968e-02 6.645076e+01 5.750746e+00
         vertex 7.999968e-02 6.629278e+01 5.824413e+00
      endloop
   endfacet
   facet normal 0.000000e+00 -4.226182e-01 -9.063078e-01
      outer loop
         vertex 7.999968e-02 6.645076e+01 5.750746e+00
         vertex 1.608000e+01 6.645076e+01 5.750746e+00
         vertex 1.608000e+01 6.629278e+01 5.824413e+00
      endloop
   endfacet
   facet normal 1.000000e+00 0.000000e+00 -0.000000e+00
      outer loop
         vertex 1.608000e+01 6.645076e+01 5.750746e+00
         vertex 1.608000e+01 6.679278e+01 6.690439e+00
         vertex 1.608000e+01 6.629278e+01 5.824413e+00
      endloop
   endfacet
   facet normal 0.000000e+00 -4.226182e-01 9.063078e-01
      outer loop
         vertex 1.608000e+01 6.629278e+01 7.556464e+00
         vertex 1.608000e+01 6.645076e+01 7.630131e+00
         vertex 7.999968e-02 6.629278e+01 7.556464e+00
      endloop
   endfacet
   facet normal 0.000000e+00 -4.226182e-01 9.063078e-01
      outer loop
         vertex 1.608000e+01 6.645076e+01 7.630131e+00
         vertex 7.999968e-02 6.645076e+01 7.630131e+00
         vertex 7.999968e-02 6.629278e+01 7.556464e+00
      endloop
   endfacet
   facet normal -1.000000e+00 0.000000e+00 -0.000000e+00
      outer loop
         vertex 7.999968e-02 6.645076e+01 7.630131e+00
         vertex 7.999968e-02 6.679278e+01 6.690439e+00
         vertex 7.999968e-02 6.629278e+01 7.556464e+00
      endloop
   endfacet
   facet normal 1.000000e+00 0.000000e+00 0.000000e+00
      outer loop
         vertex 1.608000e+01 6.679278e+01 6.690439e+00
         vertex 1.608000e+01 6.645076e+01 7.630131e+00
         vertex 1.608000e+01 6.629278e+01 7.556464e+00
      endloop
   endfacet
   facet normal 0.000000e+00 -2.588190e-01 -9.659258e-01
      outer loop
         vertex 7.999968e-02 6.661913e+01 5.705631e+00
         vertex 1.608000e+01 6.645076e+01 5.750746e+00
         vertex 7.999968e-02 6.645076e+01 5.750746e+00
      endloop
   endfacet
   facet normal -1.000000e+00 0.000000e+00 0.000000e+00
      outer loop
         vertex 7.999968e-02 6.679278e+01 6.690439e+00
         vertex 7.999968e-02 6.661913e+01 5.705631e+00
         vertex 7.999968e-02 6.645076e+01 5.750746e+00
      endloop
   endfacet
   facet normal 0.000000e+00 -2.588190e-01 -9.659258e-01
      outer loop
         vertex 7.999968e-02 6.661913e+01 5.705631e+00
         vertex 1.608000e+01 6.661913e+01 5.705631e+00
         vertex 1.608000e+01 6.645076e+01 5.750746e+00
      endloop
   endfacet
   facet normal 1.000000e+00 0.000000e+00 -0.000000e+00
      outer loop
         vertex 1.608000e+01 6.661913e+01 5.705631e+00
         vertex 1.608000e+01 6.679278e+01 6.690439e+00
         vertex 1.608000e+01 6.645076e+01 5.750746e+00
      endloop
   endfacet
   facet normal 0.000000e+00 -2.588190e-01 9.659258e-01
      outer loop
         vertex 1.608000e+01 6.645076e+01 7.630131e+00
         vertex 1.608000e+01 6.661913e+01 7.675246e+00
         vertex 7.999968e-02 6.645076e+01 7.630131e+00
      endloop
   endfacet
   facet normal 0.000000e+00 -2.588190e-01 9.659258e-01
      outer loop
         vertex 1.608000e+01 6.661913e+01 7.675246e+00
         vertex 7.999968e-02 6.661913e+01 7.675246e+00
         vertex 7.999968e-02 6.645076e+01 7.630131e+00
      endloop
   endfacet
   facet normal -1.000000e+00 0.000000e+00 -0.000000e+00
      outer loop
         vertex 7.999968e-02 6.661913e+01 7.675246e+00
         vertex 7.999968e-02 6.679278e+01 6.690439e+00
         vertex 7.999968e-02 6.645076e+01 7.630131e+00
      endloop
   endfacet
   facet normal 1.000000e+00 0.000000e+00 0.000000e+00
      outer loop
         vertex 1.608000e+01 6.679278e+01 6.690439e+00
         vertex 1.608000e+01 6.661913e+01 7.675246e+00
         vertex 1.608000e+01 6.645076e+01 7.630131e+00
      endloop
   endfacet
   facet normal 0.000000e+00 -8.715613e-02 -9.961947e-01
      outer loop
         vertex 7.999968e-02 6.679278e+01 5.690439e+00
         vertex 1.608000e+01 6.661913e+01 5.705631e+00
         vertex 7.999968e-02 6.661913e+01 5.705631e+00
      endloop
   endfacet
   facet normal -1.000000e+00 0.000000e+00 -0.000000e+00
      outer loop
         vertex 7.999968e-02 6.679278e+01 6.690439e+00
         vertex 7.999968e-02 6.679278e+01 5.690439e+00
         vertex 7.999968e-02 6.661913e+01 5.705631e+00
      endloop
   endfacet
   facet normal 0.000000e+00 -8.715613e-02 -9.961947e-01
      outer loop
         vertex 7.999968e-02 6.679278e+01 5.690439e+00
         vertex 1.608000e+01 6.679278e+01 5.690439e+00
         vertex 1.608000e+01 6.661913e+01 5.705631e+00
      endloop
   endfacet
   facet normal 1.000000e+00 0.000000e+00 0.000000e+00
      outer loop
         vertex 1.608000e+01 6.679278e+01 5.690439e+00
         vertex 1.608000e+01 6.679278e+01 6.690439e+00
         vertex 1.608000e+01 6.661913e+01 5.705631e+00
      endloop
   endfacet
   facet normal 0.000000e+00 -8.715613e-02 9.961947e-01
      outer loop
         vertex 1.608000e+01 6.661913e+01 7.675246e+00
         vertex 1.608000e+01 6.679278e+01 7.690439e+00
         vertex 7.999968e-02 6.661913e+01 7.675246e+00
      endloop
   endfacet
   facet normal 0.000000e+00 -8.715613e-02 9.961947e-01
      outer loop
         vertex 1.608000e+01 6.679278e+01 7.690439e+00
         vertex 7.999968e-02 6.679278e+01 7.690439e+00
         vertex 7.999968e-02 6.661913e+01 7.675246e+00
      endloop
   endfacet
   facet normal -1.000000e+00 0.000000e+00 -0.000000e+00
      outer loop
         vertex 7.999968e-02 6.679278e+01 7.690439e+00
         vertex 7.999968e-02 6.679278e+01 6.690439e+00
         vertex 7.999968e-02 6.661913e+01 7.675246e+00
      endloop
   endfacet
   facet normal 1.000000e+00 0.000000e+00 -0.000000e+00
      outer loop
         vertex 1.608000e+01 6.679278e+01 6.690439e+00
         vertex 1.608000e+01 6.679278e+01 7.690439e+00
         vertex 1.608000e+01 6.661913e+01 7.675246e+00
      endloop
   endfacet
   facet normal -1.000000e+00 -0.000000e+00 0.000000e+00
      outer loop
         vertex 7.999968e-02 6.713480e+01 5.750746e+00
         vertex 7.999968e-02 6.696643e+01 5.705631e+00
         vertex 7.999968e-02 6.679278e+01 6.690439e+00
      endloop
   endfacet
   facet normal -1.000000e+00 -0.000000e+00 0.000000e+00
      outer loop
         vertex 7.999968e-02 6.696643e+01 5.705631e+00
         vertex 7.999968e-02 6.679278e+01 5.690439e+00
         vertex 7.999968e-02 6.679278e+01 6.690439e+00
      endloop
   endfacet
   facet normal -1.000000e+00 -0.000000e+00 0.000000e+00
      outer loop
         vertex 7.999968e-02 6.755882e+01 6.047651e+00
         vertex 7.999968e-02 6.743557e+01 5.924394e+00
         vertex 7.999968e-02 6.679278e+01 6.690439e+00
      endloop
   endfacet
   facet normal -1.000000e+00 -0.000000e+00 0.000000e+00
      outer loop
         vertex 7.999968e-02 6.743557e+01 5.924394e+00
         vertex 7.999968e-02 6.729278e+01 5.824413e+00
         vertex 7.999968e-02 6.679278e+01 6.690439e+00
      endloop
   endfacet
   facet normal -1.000000e+00 -0.000000e+00 0.000000e+00
      outer loop
         vertex 7.999968e-02 6.729278e+01 5.824413e+00
         vertex 7.999968e-02 6.713480e+01 5.750746e+00
         vertex 7.999968e-02 6.679278e+01 6.690439e+00
      endloop
   endfacet
   facet normal -1.000000e+00 -0.000000e+00 0.000000e+00
      outer loop
         vertex 7.999968e-02 6.777759e+01 6.516790e+00
         vertex 7.999968e-02 6.773247e+01 6.348418e+00
         vertex 7.999968e-02 6.679278e+01 6.690439e+00
      endloop
   endfacet
   facet normal -1.000000e+00 -0.000000e+00 0.000000e+00
      outer loop
         vertex 7.999968e-02 6.773247e+01 6.348418e+00
         vertex 7.999968e-02 6.765880e+01 6.190439e+00
         vertex 7.999968e-02 6.679278e+01 6.690439e+00
      endloop
   endfacet
   facet normal -1.000000e+00 -0.000000e+00 0.000000e+00
      outer loop
         vertex 7.999968e-02 6.765880e+01 6.190439e+00
         vertex 7.999968e-02 6.755882e+01 6.047651e+00
         vertex 7.999968e-02 6.679278e+01 6.690439e+00
      endloop
   endfacet
   facet normal -1.000000e+00 0.000000e+00 -0.000000e+00
      outer loop
         vertex 7.999968e-02 6.773247e+01 7.032459e+00
         vertex 7.999968e-02 6.777759e+01 6.864087e+00
         vertex 7.999968e-02 6.679278e+01 6.690439e+00
      endloop
   endfacet
   facet normal -1.000000e+00 0.000000e+00 -0.000000e+00
      outer loop
         vertex 7.999968e-02 6.777759e+01 6.864087e+00
         vertex 7.999968e-02 6.779278e+01 6.690439e+00
         vertex 7.999968e-02 6.679278e+01 6.690439e+00
      endloop
   endfacet
   facet normal -1.000000e+00 0.000000e+00 0.000000e+00
      outer loop
         vertex 7.999968e-02 6.779278e+01 6.690439e+00
         vertex 7.999968e-02 6.777759e+01 6.516790e+00
         vertex 7.999968e-02 6.679278e+01 6.690439e+00
      endloop
   endfacet
   facet normal -1.000000e+00 0.000000e+00 -0.000000e+00
      outer loop
         vertex 7.999968e-02 6.743557e+01 7.456483e+00
         vertex 7.999968e-02 6.755882e+01 7.333226e+00
         vertex 7.999968e-02 6.679278e+01 6.690439e+00
      endloop
   endfacet
   facet normal -1.000000e+00 0.000000e+00 -0.000000e+00
      outer loop
         vertex 7.999968e-02 6.755882e+01 7.333226e+00
         vertex 7.999968e-02 6.765880e+01 7.190439e+00
         vertex 7.999968e-02 6.679278e+01 6.690439e+00
      endloop
   endfacet
   facet normal -1.000000e+00 0.000000e+00 -0.000000e+00
      outer loop
         vertex 7.999968e-02 6.765880e+01 7.190439e+00
         vertex 7.999968e-02 6.773247e+01 7.032459e+00
         vertex 7.999968e-02 6.679278e+01 6.690439e+00
      endloop
   endfacet
   facet normal -1.000000e+00 0.000000e+00 -0.000000e+00
      outer loop
         vertex 7.999968e-02 6.696643e+01 7.675246e+00
         vertex 7.999968e-02 6.713480e+01 7.630131e+00
         vertex 7.999968e-02 6.679278e+01 6.690439e+00
      endloop
   endfacet
   facet normal -1.000000e+00 0.000000e+00 -0.000000e+00
      outer loop
         vertex 7.999968e-02 6.713480e+01 7.630131e+00
         vertex 7.999968e-02 6.729278e+01 7.556464e+00
         vertex 7.999968e-02 6.679278e+01 6.690439e+00
      endloop
   endfacet
   facet normal -1.000000e+00 0.000000e+00 -0.000000e+00
      outer loop
         vertex 7.999968e-02 6.729278e+01 7.556464e+00
         vertex 7.999968e-02 6.743557e+01 7.456483e+00
         vertex 7.999968e-02 6.679278e+01 6.690439e+00
      endloop
   endfacet
   facet normal -1.000000e+00 0.000000e+00 0.000000e+00
      outer loop
         vertex 7.999968e-02 6.679278e+01 7.690439e+00
         vertex 7.999968e-02 6.696643e+01 7.675246e+00
         vertex 7.999968e-02 6.679278e+01 6.690439e+00
      endloop
   endfacet
   facet normal 1.000000e+00 0.000000e+00 -0.000000e+00
      outer loop
         vertex 1.608000e+01 6.679278e+01 5.690439e+00
         vertex 1.608000e+01 6.696643e+01 5.705631e+00
         vertex 1.608000e+01 6.679278e+01 6.690439e+00
      endloop
   endfacet
   facet normal 1.000000e+00 0.000000e+00 0.000000e+00
      outer loop
         vertex 1.608000e+01 6.713480e+01 7.630131e+00
         vertex 1.608000e+01 6.696643e+01 7.675246e+00
         vertex 1.608000e+01 6.679278e+01 6.690439e+00
      endloop
   endfacet
   facet normal 1.000000e+00 0.000000e+00 0.000000e+00
      outer loop
         vertex 1.608000e+01 6.696643e+01 7.675246e+00
         vertex 1.608000e+01 6.679278e+01 7.690439e+00
         vertex 1.608000e+01 6.679278e+01 6.690439e+00
      endloop
   endfacet
   facet normal 1.000000e+00 0.000000e+00 0.000000e+00
      outer loop
         vertex 1.608000e+01 6.755882e+01 7.333226e+00
         vertex 1.608000e+01 6.743557e+01 7.456483e+00
         vertex 1.608000e+01 6.679278e+01 6.690439e+00
      endloop
   endfacet
   facet normal 1.000000e+00 0.000000e+00 0.000000e+00
      outer loop
         vertex 1.608000e+01 6.743557e+01 7.456483e+00
         vertex 1.608000e+01 6.729278e+01 7.556464e+00
         vertex 1.608000e+01 6.679278e+01 6.690439e+00
      endloop
   endfacet
   facet normal 1.000000e+00 0.000000e+00 0.000000e+00
      outer loop
         vertex 1.608000e+01 6.729278e+01 7.556464e+00
         vertex 1.608000e+01 6.713480e+01 7.630131e+00
         vertex 1.608000e+01 6.679278e+01 6.690439e+00
      endloop
   endfacet
   facet normal 1.000000e+00 0.000000e+00 0.000000e+00
      outer loop
         vertex 1.608000e+01 6.777759e+01 6.864087e+00
         vertex 1.608000e+01 6.773247e+01 7.032459e+00
         vertex 1.608000e+01 6.679278e+01 6.690439e+00
      endloop
   endfacet
   facet normal 1.000000e+00 0.000000e+00 0.000000e+00
      outer loop
         vertex 1.608000e+01 6.773247e+01 7.032459e+00
         vertex 1.608000e+01 6.765880e+01 7.190439e+00
         vertex 1.608000e+01 6.679278e+01 6.690439e+00
      endloop
   endfacet
   facet normal 1.000000e+00 0.000000e+00 0.000000e+00
      outer loop
         vertex 1.608000e+01 6.765880e+01 7.190439e+00
         vertex 1.608000e+01 6.755882e+01 7.333226e+00
         vertex 1.608000e+01 6.679278e+01 6.690439e+00
      endloop
   endfacet
   facet normal 1.000000e+00 0.000000e+00 -0.000000e+00
      outer loop
         vertex 1.608000e+01 6.773247e+01 6.348418e+00
         vertex 1.608000e+01 6.777759e+01 6.516790e+00
         vertex 1.608000e+01 6.679278e+01 6.690439e+00
      endloop
   endfacet
   facet normal 1.000000e+00 0.000000e+00 -0.000000e+00
      outer loop
         vertex 1.608000e+01 6.777759e+01 6.516790e+00
         vertex 1.608000e+01 6.779278e+01 6.690439e+00
         vertex 1.608000e+01 6.679278e+01 6.690439e+00
      endloop
   endfacet
   facet normal 1.000000e+00 0.000000e+00 0.000000e+00
      outer loop
         vertex 1.608000e+01 6.779278e+01 6.690439e+00
         vertex 1.608000e+01 6.777759e+01 6.864087e+00
         vertex 1.608000e+01 6.679278e+01 6.690439e+00
      endloop
   endfacet
   facet normal 1.000000e+00 0.000000e+00 -0.000000e+00
      outer loop
         vertex 1.608000e+01 6.743557e+01 5.924394e+00
         vertex 1.608000e+01 6.755882e+01 6.047651e+00
         vertex 1.608000e+01 6.679278e+01 6.690439e+00
      endloop
   endfacet
   facet normal 1.000000e+00 0.000000e+00 -0.000000e+00
      outer loop
         vertex 1.608000e+01 6.755882e+01 6.047651e+00
         vertex 1.608000e+01 6.765880e+01 6.190439e+00
         vertex 1.608000e+01 6.679278e+01 6.690439e+00
      endloop
   endfacet
   facet normal 1.000000e+00 0.000000e+00 -0.000000e+00
      outer loop
         vertex 1.608000e+01 6.765880e+01 6.190439e+00
         vertex 1.608000e+01 6.773247e+01 6.348418e+00
         vertex 1.608000e+01 6.679278e+01 6.690439e+00
      endloop
   endfacet
   facet normal 1.000000e+00 0.000000e+00 -0.000000e+00
      outer loop
         vertex 1.608000e+01 6.696643e+01 5.705631e+00
         vertex 1.608000e+01 6.713480e+01 5.750746e+00
         vertex 1.608000e+01 6.679278e+01 6.690439e+00
      endloop
   endfacet
   facet normal 1.000000e+00 0.000000e+00 -0.000000e+00
      outer loop
         vertex 1.608000e+01 6.713480e+01 5.750746e+00
         vertex 1.608000e+01 6.729278e+01 5.824413e+00
         vertex 1.608000e+01 6.679278e+01 6.690439e+00
      endloop
   endfacet
   facet normal 1.000000e+00 0.000000e+00 -0.000000e+00
      outer loop
         vertex 1.608000e+01 6.729278e+01 5.824413e+00
         vertex 1.608000e+01 6.743557e+01 5.924394e+00
         vertex 1.608000e+01 6.679278e+01 6.690439e+00
      endloop
   endfacet
   facet normal 0.000000e+00 8.715613e-02 9.961947e-01
      outer loop
         vertex 1.608000e+01 6.696643e+01 7.675246e+00
         vertex 7.999968e-02 6.696643e+01 7.675246e+00
         vertex 7.999968e-02 6.679278e+01 7.690439e+00
      endloop
   endfacet
   facet normal 0.000000e+00 8.715613e-02 9.961947e-01
      outer loop
         vertex 1.608000e+01 6.679278e+01 7.690439e+00
         vertex 1.608000e+01 6.696643e+01 7.675246e+00
         vertex 7.999968e-02 6.679278e+01 7.690439e+00
      endloop
   endfacet
   facet normal 0.000000e+00 8.715613e-02 -9.961947e-01
      outer loop
         vertex 7.999968e-02 6.696643e+01 5.705631e+00
         vertex 1.608000e+01 6.679278e+01 5.690439e+00
         vertex 7.999968e-02 6.679278e+01 5.690439e+00
      endloop
   endfacet
   facet normal 0.000000e+00 8.715613e-02 -9.961947e-01
      outer loop
         vertex 7.999968e-02 6.696643e+01 5.705631e+00
         vertex 1.608000e+01 6.696643e+01 5.705631e+00
         vertex 1.608000e+01 6.679278e+01 5.690439e+00
      endloop
   endfacet
   facet normal 0.000000e+00 2.588190e-01 -9.659258e-01
      outer loop
         vertex 7.999968e-02 6.713480e+01 5.750746e+00
         vertex 1.608000e+01 6.696643e+01 5.705631e+00
         vertex 7.999968e-02 6.696643e+01 5.705631e+00
      endloop
   endfacet
   facet normal 0.000000e+00 2.588190e-01 -9.659258e-01
      outer loop
         vertex 7.999968e-02 6.713480e+01 5.750746e+00
         vertex 1.608000e+01 6.713480e+01 5.750746e+00
         vertex 1.608000e+01 6.696643e+01 5.705631e+00
      endloop
   endfacet
   facet normal 0.000000e+00 2.588190e-01 9.659258e-01
      outer loop
         vertex 1.608000e+01 6.696643e+01 7.675246e+00
         vertex 1.608000e+01 6.713480e+01 7.630131e+00
         vertex 7.999968e-02 6.696643e+01 7.675246e+00
      endloop
   endfacet
   facet normal 0.000000e+00 2.588190e-01 9.659258e-01
      outer loop
         vertex 1.608000e+01 6.713480e+01 7.630131e+00
         vertex 7.999968e-02 6.713480e+01 7.630131e+00
         vertex 7.999968e-02 6.696643e+01 7.675246e+00
      endloop
   endfacet
   facet normal 0.000000e+00 4.226182e-01 -9.063078e-01
      outer loop
         vertex 7.999968e-02 6.729278e+01 5.824413e+00
         vertex 1.608000e+01 6.713480e+01 5.750746e+00
         vertex 7.999968e-02 6.713480e+01 5.750746e+00
      endloop
   endfacet
   facet normal 0.000000e+00 4.226182e-01 -9.063078e-01
      outer loop
         vertex 7.999968e-02 6.729278e+01 5.824413e+00
         vertex 1.608000e+01 6.729278e+01 5.824413e+00
         vertex 1.608000e+01 6.713480e+01 5.750746e+00
      endloop
   endfacet
   facet normal 0.000000e+00 4.226182e-01 9.063078e-01
      outer loop
         vertex 1.608000e+01 6.713480e+01 7.630131e+00
         vertex 1.608000e+01 6.729278e+01 7.556464e+00
         vertex 7.999968e-02 6.713480e+01 7.630131e+00
      endloop
   endfacet
   facet normal 0.000000e+00 4.226182e-01 9.063078e-01
      outer loop
         vertex 1.608000e+01 6.729278e+01 7.556464e+00
         vertex 7.999968e-02 6.729278e+01 7.556464e+00
         vertex 7.999968e-02 6.713480e+01 7.630131e+00
      endloop
   endfacet
   facet normal 0.000000e+00 5.735765e-01 -8.191520e-01
      outer loop
         vertex 7.999968e-02 6.743557e+01 5.924394e+00
         vertex 1.608000e+01 6.729278e+01 5.824413e+00
         vertex 7.999968e-02 6.729278e+01 5.824413e+00
      endloop
   endfacet
   facet normal 0.000000e+00 5.735765e-01 -8.191520e-01
      outer loop
         vertex 7.999968e-02 6.743557e+01 5.924394e+00
         vertex 1.608000e+01 6.743557e+01 5.924394e+00
         vertex 1.608000e+01 6.729278e+01 5.824413e+00
      endloop
   endfacet
   facet normal 0.000000e+00 5.735765e-01 8.191520e-01
      outer loop
         vertex 1.608000e+01 6.729278e+01 7.556464e+00
         vertex 1.608000e+01 6.743557e+01 7.456483e+00
         vertex 7.999968e-02 6.729278e+01 7.556464e+00
      endloop
   endfacet
   facet normal 0.000000e+00 5.735765e-01 8.191520e-01
      outer loop
         vertex 1.608000e+01 6.743557e+01 7.456483e+00
         vertex 7.999968e-02 6.743557e+01 7.456483e+00
         vertex 7.999968e-02 6.729278e+01 7.556464e+00
      endloop
   endfacet
   facet normal 0.000000e+00 7.071068e-01 -7.071068e-01
      outer loop
         vertex 7.999968e-02 6.755882e+01 6.047651e+00
         vertex 1.608000e+01 6.743557e+01 5.924394e+00
         vertex 7.999968e-02 6.743557e+01 5.924394e+00
      endloop
   endfacet
   facet normal 0.000000e+00 7.071068e-01 -7.071068e-01
      outer loop
         vertex 7.999968e-02 6.755882e+01 6.047651e+00
         vertex 1.608000e+01 6.755882e+01 6.047651e+00
         vertex 1.608000e+01 6.743557e+01 5.924394e+00
      endloop
   endfacet
   facet normal 0.000000e+00 7.071068e-01 7.071068e-01
      outer loop
         vertex 1.608000e+01 6.743557e+01 7.456483e+00
         vertex 1.608000e+01 6.755882e+01 7.333226e+00
         vertex 7.999968e-02 6.743557e+01 7.456483e+00
      endloop
   endfacet
   facet normal 0.000000e+00 7.071068e-01 7.071068e-01
      outer loop
         vertex 1.608000e+01 6.755882e+01 7.333226e+00
         vertex 7.999968e-02 6.755882e+01 7.333226e+00
         vertex 7.999968e-02 6.743557e+01 7.456483e+00
      endloop
   endfacet
   facet normal 0.000000e+00 8.191520e-01 -5.735765e-01
      outer loop
         vertex 7.999968e-02 6.765880e+01 6.190439e+00
         vertex 1.608000e+01 6.755882e+01 6.047651e+00
         vertex 7.999968e-02 6.755882e+01 6.047651e+00
      endloop
   endfacet
   facet normal 0.000000e+00 8.191520e-01 -5.735765e-01
      outer loop
         vertex 7.999968e-02 6.765880e+01 6.190439e+00
         vertex 1.608000e+01 6.765880e+01 6.190439e+00
         vertex 1.608000e+01 6.755882e+01 6.047651e+00
      endloop
   endfacet
   facet normal 0.000000e+00 8.191520e-01 5.735765e-01
      outer loop
         vertex 1.608000e+01 6.755882e+01 7.333226e+00
         vertex 1.608000e+01 6.765880e+01 7.190439e+00
         vertex 7.999968e-02 6.755882e+01 7.333226e+00
      endloop
   endfacet
   facet normal 0.000000e+00 8.191520e-01 5.735765e-01
      outer loop
         vertex 1.608000e+01 6.765880e+01 7.190439e+00
         vertex 7.999968e-02 6.765880e+01 7.190439e+00
         vertex 7.999968e-02 6.755882e+01 7.333226e+00
      endloop
   endfacet
   facet normal 0.000000e+00 9.063078e-01 -4.226182e-01
      outer loop
         vertex 7.999968e-02 6.773247e+01 6.348418e+00
         vertex 1.608000e+01 6.765880e+01 6.190439e+00
         vertex 7.999968e-02 6.765880e+01 6.190439e+00
      endloop
   endfacet
   facet normal 0.000000e+00 9.063078e-01 -4.226182e-01
      outer loop
         vertex 7.999968e-02 6.773247e+01 6.348418e+00
         vertex 1.608000e+01 6.773247e+01 6.348418e+00
         vertex 1.608000e+01 6.765880e+01 6.190439e+00
      endloop
   endfacet
   facet normal 0.000000e+00 9.063078e-01 4.226182e-01
      outer loop
         vertex 1.608000e+01 6.765880e+01 7.190439e+00
         vertex 1.608000e+01 6.773247e+01 7.032459e+00
         vertex 7.999968e-02 6.765880e+01 7.190439e+00
      endloop
   endfacet
   facet normal 0.000000e+00 9.063078e-01 4.226182e-01
      outer loop
         vertex 1.608000e+01 6.773247e+01 7.032459e+00
         vertex 7.999968e-02 6.773247e+01 7.032459e+00
         vertex 7.999968e-02 6.765880e+01 7.190439e+00
      endloop
   endfacet
   facet normal 0.000000e+00 9.659258e-01 -2.588190e-01
      outer loop
         vertex 7.999968e-02 6.777759e+01 6.516790e+00
         vertex 1.608000e+01 6.773247e+01 6.348418e+00
         vertex 7.999968e-02 6.773247e+01 6.348418e+00
      endloop
   endfacet
   facet normal 0.000000e+00 9.659258e-01 -2.588190e-01
      outer loop
         vertex 7.999968e-02 6.777759e+01 6.516790e+00
         vertex 1.608000e+01 6.777759e+01 6.516790e+00
         vertex 1.608000e+01 6.773247e+01 6.348418e+00
      endloop
   endfacet
   facet normal 0.000000e+00 9.659258e-01 2.588190e-01
      outer loop
         vertex 1.608000e+01 6.773247e+01 7.032459e+00
         vertex 1.608000e+01 6.777759e+01 6.864087e+00
         vertex 7.999968e-02 6.773247e+01 7.032459e+00
      endloop
   endfacet
   facet normal 0.000000e+00 9.659258e-01 2.588190e-01
      outer loop
         vertex 1.608000e+01 6.777759e+01 6.864087e+00
         vertex 7.999968e-02 6.777759e+01 6.864087e+00
         vertex 7.999968e-02 6.773247e+01 7.032459e+00
      endloop
   endfacet
   facet normal 0.000000e+00 9.961947e-01 -8.715613e-02
      outer loop
         vertex 7.999968e-02 6.779278e+01 6.690439e+00
         vertex 1.608000e+01 6.777759e+01 6.516790e+00
         vertex 7.999968e-02 6.777759e+01 6.516790e+00
      endloop
   endfacet
   facet normal 0.000000e+00 9.961947e-01 -8.715613e-02
      outer loop
         vertex 7.999968e-02 6.779278e+01 6.690439e+00
         vertex 1.608000e+01 6.779278e+01 6.690439e+00
         vertex 1.608000e+01 6.777759e+01 6.516790e+00
      endloop
   endfacet
   facet normal 0.000000e+00 9.961947e-01 8.715613e-02
      outer loop
         vertex 1.608000e+01 6.777759e+01 6.864087e+00
         vertex 1.608000e+01 6.779278e+01 6.690439e+00
         vertex 7.999968e-02 6.777759e+01 6.864087e+00
      endloop
   endfacet
   facet normal 0.000000e+00 9.961947e-01 8.715613e-02
      outer loop
         vertex 1.608000e+01 6.779278e+01 6.690439e+00
         vertex 7.999968e-02 6.779278e+01 6.690439e+00
         vertex 7.999968e-02 6.777759e+01 6.864087e+00
      endloop
   endfacet
endsolid