solid Perno2 Falanges anular
   facet normal 0.000000e+00 -9.961947e-01 -8.715613e-02
      outer loop
         vertex 9.000022e-02 3.151519e+01 8.363518e-01
         vertex 1.809000e+01 3.150000e+01 1.010000e+00
         vertex 9.000022e-02 3.150000e+01 1.010000e+00
      endloop
   endfacet
   facet normal 0.000000e+00 -9.961947e-01 8.715613e-02
      outer loop
         vertex 1.809000e+01 3.150000e+01 1.010000e+00
         vertex 1.809000e+01 3.151519e+01 1.183648e+00
         vertex 9.000022e-02 3.150000e+01 1.010000e+00
      endloop
   endfacet
   facet normal 0.000000e+00 -9.961947e-01 8.715613e-02
      outer loop
         vertex 1.809000e+01 3.151519e+01 1.183648e+00
         vertex 9.000022e-02 3.151519e+01 1.183648e+00
         vertex 9.000022e-02 3.150000e+01 1.010000e+00
      endloop
   endfacet
   facet normal -1.000000e+00 0.000000e+00 0.000000e+00
      outer loop
         vertex 9.000022e-02 3.250000e+01 1.010000e+00
         vertex 9.000022e-02 3.151519e+01 8.363518e-01
         vertex 9.000022e-02 3.150000e+01 1.010000e+00
      endloop
   endfacet
   facet normal -1.000000e+00 0.000000e+00 -0.000000e+00
      outer loop
         vertex 9.000022e-02 3.151519e+01 1.183648e+00
         vertex 9.000022e-02 3.250000e+01 1.010000e+00
         vertex 9.000022e-02 3.150000e+01 1.010000e+00
      endloop
   endfacet
   facet normal 0.000000e+00 -9.961947e-01 -8.715613e-02
      outer loop
         vertex 9.000022e-02 3.151519e+01 8.363518e-01
         vertex 1.809000e+01 3.151519e+01 8.363518e-01
         vertex 1.809000e+01 3.150000e+01 1.010000e+00
      endloop
   endfacet
   facet normal 1.000000e+00 0.000000e+00 0.000000e+00
      outer loop
         vertex 1.809000e+01 3.250000e+01 1.010000e+00
         vertex 1.809000e+01 3.151519e+01 1.183648e+00
         vertex 1.809000e+01 3.150000e+01 1.010000e+00
      endloop
   endfacet
   facet normal 1.000000e+00 0.000000e+00 -0.000000e+00
      outer loop
         vertex 1.809000e+01 3.151519e+01 8.363518e-01
         vertex 1.809000e+01 3.250000e+01 1.010000e+00
         vertex 1.809000e+01 3.150000e+01 1.010000e+00
      endloop
   endfacet
   facet normal 0.000000e+00 -9.659258e-01 -2.588190e-01
      outer loop
         vertex 9.000022e-02 3.156031e+01 6.679799e-01
         vertex 1.809000e+01 3.151519e+01 8.363518e-01
         vertex 9.000022e-02 3.151519e+01 8.363518e-01
      endloop
   endfacet
   facet normal -1.000000e+00 0.000000e+00 0.000000e+00
      outer loop
         vertex 9.000022e-02 3.250000e+01 1.010000e+00
         vertex 9.000022e-02 3.156031e+01 6.679799e-01
         vertex 9.000022e-02 3.151519e+01 8.363518e-01
      endloop
   endfacet
   facet normal 0.000000e+00 -9.659258e-01 -2.588190e-01
      outer loop
         vertex 9.000022e-02 3.156031e+01 6.679799e-01
         vertex 1.809000e+01 3.156031e+01 6.679799e-01
         vertex 1.809000e+01 3.151519e+01 8.363518e-01
      endloop
   endfacet
   facet normal 1.000000e+00 0.000000e+00 -0.000000e+00
      outer loop
         vertex 1.809000e+01 3.156031e+01 6.679799e-01
         vertex 1.809000e+01 3.250000e+01 1.010000e+00
         vertex 1.809000e+01 3.151519e+01 8.363518e-01
      endloop
   endfacet
   facet normal 0.000000e+00 -9.659258e-01 2.588190e-01
      outer loop
         vertex 1.809000e+01 3.151519e+01 1.183648e+00
         vertex 1.809000e+01 3.156031e+01 1.352020e+00
         vertex 9.000022e-02 3.151519e+01 1.183648e+00
      endloop
   endfacet
   facet normal 0.000000e+00 -9.659258e-01 2.588190e-01
      outer loop
         vertex 1.809000e+01 3.156031e+01 1.352020e+00
         vertex 9.000022e-02 3.156031e+01 1.352020e+00
         vertex 9.000022e-02 3.151519e+01 1.183648e+00
      endloop
   endfacet
   facet normal -1.000000e+00 0.000000e+00 -0.000000e+00
      outer loop
         vertex 9.000022e-02 3.156031e+01 1.352020e+00
         vertex 9.000022e-02 3.250000e+01 1.010000e+00
         vertex 9.000022e-02 3.151519e+01 1.183648e+00
      endloop
   endfacet
   facet normal 1.000000e+00 0.000000e+00 0.000000e+00
      outer loop
         vertex 1.809000e+01 3.250000e+01 1.010000e+00
         vertex 1.809000e+01 3.156031e+01 1.352020e+00
         vertex 1.809000e+01 3.151519e+01 1.183648e+00
      endloop
   endfacet
   facet normal 0.000000e+00 -9.063078e-01 -4.226182e-01
      outer loop
         vertex 9.000022e-02 3.163397e+01 5.100000e-01
         vertex 1.809000e+01 3.156031e+01 6.679799e-01
         vertex 9.000022e-02 3.156031e+01 6.679799e-01
      endloop
   endfacet
   facet normal -1.000000e+00 0.000000e+00 0.000000e+00
      outer loop
         vertex 9.000022e-02 3.250000e+01 1.010000e+00
         vertex 9.000022e-02 3.163397e+01 5.100000e-01
         vertex 9.000022e-02 3.156031e+01 6.679799e-01
      endloop
   endfacet
   facet normal 0.000000e+00 -9.063078e-01 -4.226182e-01
      outer loop
         vertex 9.000022e-02 3.163397e+01 5.100000e-01
         vertex 1.809000e+01 3.163397e+01 5.100000e-01
         vertex 1.809000e+01 3.156031e+01 6.679799e-01
      endloop
   endfacet
   facet normal 1.000000e+00 0.000000e+00 -0.000000e+00
      outer loop
         vertex 1.809000e+01 3.163397e+01 5.100000e-01
         vertex 1.809000e+01 3.250000e+01 1.010000e+00
         vertex 1.809000e+01 3.156031e+01 6.679799e-01
      endloop
   endfacet
   facet normal 0.000000e+00 -9.063078e-01 4.226182e-01
      outer loop
         vertex 1.809000e+01 3.156031e+01 1.352020e+00
         vertex 1.809000e+01 3.163397e+01 1.510000e+00
         vertex 9.000022e-02 3.156031e+01 1.352020e+00
      endloop
   endfacet
   facet normal 0.000000e+00 -9.063078e-01 4.226182e-01
      outer loop
         vertex 1.809000e+01 3.163397e+01 1.510000e+00
         vertex 9.000022e-02 3.163397e+01 1.510000e+00
         vertex 9.000022e-02 3.156031e+01 1.352020e+00
      endloop
   endfacet
   facet normal -1.000000e+00 0.000000e+00 -0.000000e+00
      outer loop
         vertex 9.000022e-02 3.163397e+01 1.510000e+00
         vertex 9.000022e-02 3.250000e+01 1.010000e+00
         vertex 9.000022e-02 3.156031e+01 1.352020e+00
      endloop
   endfacet
   facet normal 1.000000e+00 0.000000e+00 0.000000e+00
      outer loop
         vertex 1.809000e+01 3.250000e+01 1.010000e+00
         vertex 1.809000e+01 3.163397e+01 1.510000e+00
         vertex 1.809000e+01 3.156031e+01 1.352020e+00
      endloop
   endfacet
   facet normal 0.000000e+00 -8.191520e-01 -5.735765e-01
      outer loop
         vertex 9.000022e-02 3.173396e+01 3.672124e-01
         vertex 1.809000e+01 3.163397e+01 5.100000e-01
         vertex 9.000022e-02 3.163397e+01 5.100000e-01
      endloop
   endfacet
   facet normal -1.000000e+00 0.000000e+00 0.000000e+00
      outer loop
         vertex 9.000022e-02 3.250000e+01 1.010000e+00
         vertex 9.000022e-02 3.173396e+01 3.672124e-01
         vertex 9.000022e-02 3.163397e+01 5.100000e-01
      endloop
   endfacet
   facet normal 0.000000e+00 -8.191520e-01 -5.735765e-01
      outer loop
         vertex 9.000022e-02 3.173396e+01 3.672124e-01
         vertex 1.809000e+01 3.173396e+01 3.672124e-01
         vertex 1.809000e+01 3.163397e+01 5.100000e-01
      endloop
   endfacet
   facet normal 1.000000e+00 0.000000e+00 -0.000000e+00
      outer loop
         vertex 1.809000e+01 3.173396e+01 3.672124e-01
         vertex 1.809000e+01 3.250000e+01 1.010000e+00
         vertex 1.809000e+01 3.163397e+01 5.100000e-01
      endloop
   endfacet
   facet normal 0.000000e+00 -8.191520e-01 5.735765e-01
      outer loop
         vertex 1.809000e+01 3.163397e+01 1.510000e+00
         vertex 1.809000e+01 3.173396e+01 1.652788e+00
         vertex 9.000022e-02 3.163397e+01 1.510000e+00
      endloop
   endfacet
   facet normal 0.000000e+00 -8.191520e-01 5.735765e-01
      outer loop
         vertex 1.809000e+01 3.173396e+01 1.652788e+00
         vertex 9.000022e-02 3.173396e+01 1.652788e+00
         vertex 9.000022e-02 3.163397e+01 1.510000e+00
      endloop
   endfacet
   facet normal -1.000000e+00 0.000000e+00 -0.000000e+00
      outer loop
         vertex 9.000022e-02 3.173396e+01 1.652788e+00
         vertex 9.000022e-02 3.250000e+01 1.010000e+00
         vertex 9.000022e-02 3.163397e+01 1.510000e+00
      endloop
   endfacet
   facet normal 1.000000e+00 0.000000e+00 0.000000e+00
      outer loop
         vertex 1.809000e+01 3.250000e+01 1.010000e+00
         vertex 1.809000e+01 3.173396e+01 1.652788e+00
         vertex 1.809000e+01 3.163397e+01 1.510000e+00
      endloop
   endfacet
   facet normal 0.000000e+00 -7.071068e-01 -7.071068e-01
      outer loop
         vertex 9.000022e-02 3.185721e+01 2.439556e-01
         vertex 1.809000e+01 3.173396e+01 3.672124e-01
         vertex 9.000022e-02 3.173396e+01 3.672124e-01
      endloop
   endfacet
   facet normal -1.000000e+00 0.000000e+00 0.000000e+00
      outer loop
         vertex 9.000022e-02 3.250000e+01 1.010000e+00
         vertex 9.000022e-02 3.185721e+01 2.439556e-01
         vertex 9.000022e-02 3.173396e+01 3.672124e-01
      endloop
   endfacet
   facet normal 0.000000e+00 -7.071068e-01 -7.071068e-01
      outer loop
         vertex 9.000022e-02 3.185721e+01 2.439556e-01
         vertex 1.809000e+01 3.185721e+01 2.439556e-01
         vertex 1.809000e+01 3.173396e+01 3.672124e-01
      endloop
   endfacet
   facet normal 1.000000e+00 0.000000e+00 -0.000000e+00
      outer loop
         vertex 1.809000e+01 3.185721e+01 2.439556e-01
         vertex 1.809000e+01 3.250000e+01 1.010000e+00
         vertex 1.809000e+01 3.173396e+01 3.672124e-01
      endloop
   endfacet
   facet normal 0.000000e+00 -7.071068e-01 7.071068e-01
      outer loop
         vertex 1.809000e+01 3.173396e+01 1.652788e+00
         vertex 1.809000e+01 3.185721e+01 1.776044e+00
         vertex 9.000022e-02 3.173396e+01 1.652788e+00
      endloop
   endfacet
   facet normal 0.000000e+00 -7.071068e-01 7.071068e-01
      outer loop
         vertex 1.809000e+01 3.185721e+01 1.776044e+00
         vertex 9.000022e-02 3.185721e+01 1.776044e+00
         vertex 9.000022e-02 3.173396e+01 1.652788e+00
      endloop
   endfacet
   facet normal -1.000000e+00 0.000000e+00 -0.000000e+00
      outer loop
         vertex 9.000022e-02 3.185721e+01 1.776044e+00
         vertex 9.000022e-02 3.250000e+01 1.010000e+00
         vertex 9.000022e-02 3.173396e+01 1.652788e+00
      endloop
   endfacet
   facet normal 1.000000e+00 0.000000e+00 0.000000e+00
      outer loop
         vertex 1.809000e+01 3.250000e+01 1.010000e+00
         vertex 1.809000e+01 3.185721e+01 1.776044e+00
         vertex 1.809000e+01 3.173396e+01 1.652788e+00
      endloop
   endfacet
   facet normal 0.000000e+00 -5.735765e-01 -8.191520e-01
      outer loop
         vertex 9.000022e-02 3.200000e+01 1.439746e-01
         vertex 1.809000e+01 3.185721e+01 2.439556e-01
         vertex 9.000022e-02 3.185721e+01 2.439556e-01
      endloop
   endfacet
   facet normal -1.000000e+00 0.000000e+00 0.000000e+00
      outer loop
         vertex 9.000022e-02 3.250000e+01 1.010000e+00
         vertex 9.000022e-02 3.200000e+01 1.439746e-01
         vertex 9.000022e-02 3.185721e+01 2.439556e-01
      endloop
   endfacet
   facet normal 0.000000e+00 -5.735765e-01 -8.191520e-01
      outer loop
         vertex 9.000022e-02 3.200000e+01 1.439746e-01
         vertex 1.809000e+01 3.200000e+01 1.439746e-01
         vertex 1.809000e+01 3.185721e+01 2.439556e-01
      endloop
   endfacet
   facet normal 1.000000e+00 0.000000e+00 -0.000000e+00
      outer loop
         vertex 1.809000e+01 3.200000e+01 1.439746e-01
         vertex 1.809000e+01 3.250000e+01 1.010000e+00
         vertex 1.809000e+01 3.185721e+01 2.439556e-01
      endloop
   endfacet
   facet normal 0.000000e+00 -5.735765e-01 8.191520e-01
      outer loop
         vertex 1.809000e+01 3.185721e+01 1.776044e+00
         vertex 1.809000e+01 3.200000e+01 1.876025e+00
         vertex 9.000022e-02 3.185721e+01 1.776044e+00
      endloop
   endfacet
   facet normal 0.000000e+00 -5.735765e-01 8.191520e-01
      outer loop
         vertex 1.809000e+01 3.200000e+01 1.876025e+00
         vertex 9.000022e-02 3.200000e+01 1.876025e+00
         vertex 9.000022e-02 3.185721e+01 1.776044e+00
      endloop
   endfacet
   facet normal -1.000000e+00 0.000000e+00 -0.000000e+00
      outer loop
         vertex 9.000022e-02 3.200000e+01 1.876025e+00
         vertex 9.000022e-02 3.250000e+01 1.010000e+00
         vertex 9.000022e-02 3.185721e+01 1.776044e+00
      endloop
   endfacet
   facet normal 1.000000e+00 0.000000e+00 0.000000e+00
      outer loop
         vertex 1.809000e+01 3.250000e+01 1.010000e+00
         vertex 1.809000e+01 3.200000e+01 1.876025e+00
         vertex 1.809000e+01 3.185721e+01 1.776044e+00
      endloop
   endfacet
   facet normal 0.000000e+00 -4.226182e-01 -9.063078e-01
      outer loop
         vertex 9.000022e-02 3.215798e+01 7.030740e-02
         vertex 1.809000e+01 3.200000e+01 1.439746e-01
         vertex 9.000022e-02 3.200000e+01 1.439746e-01
      endloop
   endfacet
   facet normal -1.000000e+00 0.000000e+00 0.000000e+00
      outer loop
         vertex 9.000022e-02 3.250000e+01 1.010000e+00
         vertex 9.000022e-02 3.215798e+01 7.030740e-02
         vertex 9.000022e-02 3.200000e+01 1.439746e-01
      endloop
   endfacet
   facet normal 0.000000e+00 -4.226182e-01 -9.063078e-01
      outer loop
         vertex 9.000022e-02 3.215798e+01 7.030740e-02
         vertex 1.809000e+01 3.215798e+01 7.030740e-02
         vertex 1.809000e+01 3.200000e+01 1.439746e-01
      endloop
   endfacet
   facet normal 1.000000e+00 0.000000e+00 -0.000000e+00
      outer loop
         vertex 1.809000e+01 3.215798e+01 7.030740e-02
         vertex 1.809000e+01 3.250000e+01 1.010000e+00
         vertex 1.809000e+01 3.200000e+01 1.439746e-01
      endloop
   endfacet
   facet normal 0.000000e+00 -4.226182e-01 9.063078e-01
      outer loop
         vertex 1.809000e+01 3.200000e+01 1.876025e+00
         vertex 1.809000e+01 3.215798e+01 1.949693e+00
         vertex 9.000022e-02 3.200000e+01 1.876025e+00
      endloop
   endfacet
   facet normal 0.000000e+00 -4.226182e-01 9.063078e-01
      outer loop
         vertex 1.809000e+01 3.215798e+01 1.949693e+00
         vertex 9.000022e-02 3.215798e+01 1.949693e+00
         vertex 9.000022e-02 3.200000e+01 1.876025e+00
      endloop
   endfacet
   facet normal -1.000000e+00 0.000000e+00 -0.000000e+00
      outer loop
         vertex 9.000022e-02 3.215798e+01 1.949693e+00
         vertex 9.000022e-02 3.250000e+01 1.010000e+00
         vertex 9.000022e-02 3.200000e+01 1.876025e+00
      endloop
   endfacet
   facet normal 1.000000e+00 0.000000e+00 0.000000e+00
      outer loop
         vertex 1.809000e+01 3.250000e+01 1.010000e+00
         vertex 1.809000e+01 3.215798e+01 1.949693e+00
         vertex 1.809000e+01 3.200000e+01 1.876025e+00
      endloop
   endfacet
   facet normal 0.000000e+00 -2.588190e-01 -9.659258e-01
      outer loop
         vertex 9.000022e-02 3.232635e+01 2.519228e-02
         vertex 1.809000e+01 3.215798e+01 7.030740e-02
         vertex 9.000022e-02 3.215798e+01 7.030740e-02
      endloop
   endfacet
   facet normal -1.000000e+00 0.000000e+00 0.000000e+00
      outer loop
         vertex 9.000022e-02 3.250000e+01 1.010000e+00
         vertex 9.000022e-02 3.232635e+01 2.519228e-02
         vertex 9.000022e-02 3.215798e+01 7.030740e-02
      endloop
   endfacet
   facet normal 0.000000e+00 -2.588190e-01 -9.659258e-01
      outer loop
         vertex 9.000022e-02 3.232635e+01 2.519228e-02
         vertex 1.809000e+01 3.232635e+01 2.519228e-02
         vertex 1.809000e+01 3.215798e+01 7.030740e-02
      endloop
   endfacet
   facet normal 1.000000e+00 0.000000e+00 -0.000000e+00
      outer loop
         vertex 1.809000e+01 3.232635e+01 2.519228e-02
         vertex 1.809000e+01 3.250000e+01 1.010000e+00
         vertex 1.809000e+01 3.215798e+01 7.030740e-02
      endloop
   endfacet
   facet normal 0.000000e+00 -2.588190e-01 9.659258e-01
      outer loop
         vertex 1.809000e+01 3.215798e+01 1.949693e+00
         vertex 1.809000e+01 3.232635e+01 1.994808e+00
         vertex 9.000022e-02 3.215798e+01 1.949693e+00
      endloop
   endfacet
   facet normal 0.000000e+00 -2.588190e-01 9.659258e-01
      outer loop
         vertex 1.809000e+01 3.232635e+01 1.994808e+00
         vertex 9.000022e-02 3.232635e+01 1.994808e+00
         vertex 9.000022e-02 3.215798e+01 1.949693e+00
      endloop
   endfacet
   facet normal -1.000000e+00 0.000000e+00 -0.000000e+00
      outer loop
         vertex 9.000022e-02 3.232635e+01 1.994808e+00
         vertex 9.000022e-02 3.250000e+01 1.010000e+00
         vertex 9.000022e-02 3.215798e+01 1.949693e+00
      endloop
   endfacet
   facet normal 1.000000e+00 0.000000e+00 0.000000e+00
      outer loop
         vertex 1.809000e+01 3.250000e+01 1.010000e+00
         vertex 1.809000e+01 3.232635e+01 1.994808e+00
         vertex 1.809000e+01 3.215798e+01 1.949693e+00
      endloop
   endfacet
   facet normal 0.000000e+00 -8.715613e-02 -9.961947e-01
      outer loop
         vertex 9.000022e-02 3.250000e+01 9.999960e-03
         vertex 1.809000e+01 3.232635e+01 2.519228e-02
         vertex 9.000022e-02 3.232635e+01 2.519228e-02
      endloop
   endfacet
   facet normal -1.000000e+00 0.000000e+00 -0.000000e+00
      outer loop
         vertex 9.000022e-02 3.250000e+01 1.010000e+00
         vertex 9.000022e-02 3.250000e+01 9.999960e-03
         vertex 9.000022e-02 3.232635e+01 2.519228e-02
      endloop
   endfacet
   facet normal 0.000000e+00 -8.715613e-02 -9.961947e-01
      outer loop
         vertex 9.000022e-02 3.250000e+01 9.999960e-03
         vertex 1.809000e+01 3.250000e+01 9.999960e-03
         vertex 1.809000e+01 3.232635e+01 2.519228e-02
      endloop
   endfacet
   facet normal 1.000000e+00 0.000000e+00 0.000000e+00
      outer loop
         vertex 1.809000e+01 3.250000e+01 9.999960e-03
         vertex 1.809000e+01 3.250000e+01 1.010000e+00
         vertex 1.809000e+01 3.232635e+01 2.519228e-02
      endloop
   endfacet
   facet normal 0.000000e+00 -8.715613e-02 9.961947e-01
      outer loop
         vertex 1.809000e+01 3.232635e+01 1.994808e+00
         vertex 1.809000e+01 3.250000e+01 2.010000e+00
         vertex 9.000022e-02 3.232635e+01 1.994808e+00
      endloop
   endfacet
   facet normal 0.000000e+00 -8.715613e-02 9.961947e-01
      outer loop
         vertex 1.809000e+01 3.250000e+01 2.010000e+00
         vertex 9.000022e-02 3.250000e+01 2.010000e+00
         vertex 9.000022e-02 3.232635e+01 1.994808e+00
      endloop
   endfacet
   facet normal -1.000000e+00 0.000000e+00 -0.000000e+00
      outer loop
         vertex 9.000022e-02 3.250000e+01 2.010000e+00
         vertex 9.000022e-02 3.250000e+01 1.010000e+00
         vertex 9.000022e-02 3.232635e+01 1.994808e+00
      endloop
   endfacet
   facet normal 1.000000e+00 0.000000e+00 -0.000000e+00
      outer loop
         vertex 1.809000e+01 3.250000e+01 1.010000e+00
         vertex 1.809000e+01 3.250000e+01 2.010000e+00
         vertex 1.809000e+01 3.232635e+01 1.994808e+00
      endloop
   endfacet
   facet normal -1.000000e+00 -0.000000e+00 0.000000e+00
      outer loop
         vertex 9.000022e-02 3.284202e+01 7.030740e-02
         vertex 9.000022e-02 3.267365e+01 2.519228e-02
         vertex 9.000022e-02 3.250000e+01 1.010000e+00
      endloop
   endfacet
   facet normal -1.000000e+00 -0.000000e+00 0.000000e+00
      outer loop
         vertex 9.000022e-02 3.267365e+01 2.519228e-02
         vertex 9.000022e-02 3.250000e+01 9.999960e-03
         vertex 9.000022e-02 3.250000e+01 1.010000e+00
      endloop
   endfacet
   facet normal -1.000000e+00 -0.000000e+00 0.000000e+00
      outer loop
         vertex 9.000022e-02 3.326604e+01 3.672124e-01
         vertex 9.000022e-02 3.314279e+01 2.439556e-01
         vertex 9.000022e-02 3.250000e+01 1.010000e+00
      endloop
   endfacet
   facet normal -1.000000e+00 -0.000000e+00 0.000000e+00
      outer loop
         vertex 9.000022e-02 3.314279e+01 2.439556e-01
         vertex 9.000022e-02 3.300000e+01 1.439746e-01
         vertex 9.000022e-02 3.250000e+01 1.010000e+00
      endloop
   endfacet
   facet normal -1.000000e+00 -0.000000e+00 0.000000e+00
      outer loop
         vertex 9.000022e-02 3.300000e+01 1.439746e-01
         vertex 9.000022e-02 3.284202e+01 7.030740e-02
         vertex 9.000022e-02 3.250000e+01 1.010000e+00
      endloop
   endfacet
   facet normal -1.000000e+00 -0.000000e+00 0.000000e+00
      outer loop
         vertex 9.000022e-02 3.348481e+01 8.363518e-01
         vertex 9.000022e-02 3.343969e+01 6.679799e-01
         vertex 9.000022e-02 3.250000e+01 1.010000e+00
      endloop
   endfacet
   facet normal -1.000000e+00 -0.000000e+00 0.000000e+00
      outer loop
         vertex 9.000022e-02 3.343969e+01 6.679799e-01
         vertex 9.000022e-02 3.336603e+01 5.100000e-01
         vertex 9.000022e-02 3.250000e+01 1.010000e+00
      endloop
   endfacet
   facet normal -1.000000e+00 -0.000000e+00 0.000000e+00
      outer loop
         vertex 9.000022e-02 3.336603e+01 5.100000e-01
         vertex 9.000022e-02 3.326604e+01 3.672124e-01
         vertex 9.000022e-02 3.250000e+01 1.010000e+00
      endloop
   endfacet
   facet normal -1.000000e+00 0.000000e+00 -0.000000e+00
      outer loop
         vertex 9.000022e-02 3.343969e+01 1.352020e+00
         vertex 9.000022e-02 3.348481e+01 1.183648e+00
         vertex 9.000022e-02 3.250000e+01 1.010000e+00
      endloop
   endfacet
   facet normal -1.000000e+00 0.000000e+00 -0.000000e+00
      outer loop
         vertex 9.000022e-02 3.348481e+01 1.183648e+00
         vertex 9.000022e-02 3.350000e+01 1.010000e+00
         vertex 9.000022e-02 3.250000e+01 1.010000e+00
      endloop
   endfacet
   facet normal -1.000000e+00 0.000000e+00 0.000000e+00
      outer loop
         vertex 9.000022e-02 3.350000e+01 1.010000e+00
         vertex 9.000022e-02 3.348481e+01 8.363518e-01
         vertex 9.000022e-02 3.250000e+01 1.010000e+00
      endloop
   endfacet
   facet normal -1.000000e+00 0.000000e+00 -0.000000e+00
      outer loop
         vertex 9.000022e-02 3.314279e+01 1.776044e+00
         vertex 9.000022e-02 3.326604e+01 1.652788e+00
         vertex 9.000022e-02 3.250000e+01 1.010000e+00
      endloop
   endfacet
   facet normal -1.000000e+00 0.000000e+00 -0.000000e+00
      outer loop
         vertex 9.000022e-02 3.326604e+01 1.652788e+00
         vertex 9.000022e-02 3.336603e+01 1.510000e+00
         vertex 9.000022e-02 3.250000e+01 1.010000e+00
      endloop
   endfacet
   facet normal -1.000000e+00 0.000000e+00 -0.000000e+00
      outer loop
         vertex 9.000022e-02 3.336603e+01 1.510000e+00
         vertex 9.000022e-02 3.343969e+01 1.352020e+00
         vertex 9.000022e-02 3.250000e+01 1.010000e+00
      endloop
   endfacet
   facet normal -1.000000e+00 0.000000e+00 -0.000000e+00
      outer loop
         vertex 9.000022e-02 3.267365e+01 1.994808e+00
         vertex 9.000022e-02 3.284202e+01 1.949693e+00
         vertex 9.000022e-02 3.250000e+01 1.010000e+00
      endloop
   endfacet
   facet normal -1.000000e+00 0.000000e+00 -0.000000e+00
      outer loop
         vertex 9.000022e-02 3.284202e+01 1.949693e+00
         vertex 9.000022e-02 3.300000e+01 1.876025e+00
         vertex 9.000022e-02 3.250000e+01 1.010000e+00
      endloop
   endfacet
   facet normal -1.000000e+00 0.000000e+00 -0.000000e+00
      outer loop
         vertex 9.000022e-02 3.300000e+01 1.876025e+00
         vertex 9.000022e-02 3.314279e+01 1.776044e+00
         vertex 9.000022e-02 3.250000e+01 1.010000e+00
      endloop
   endfacet
   facet normal -1.000000e+00 0.000000e+00 0.000000e+00
      outer loop
         vertex 9.000022e-02 3.250000e+01 2.010000e+00
         vertex 9.000022e-02 3.267365e+01 1.994808e+00
         vertex 9.000022e-02 3.250000e+01 1.010000e+00
      endloop
   endfacet
   facet normal 1.000000e+00 0.000000e+00 -0.000000e+00
      outer loop
         vertex 1.809000e+01 3.250000e+01 9.999960e-03
         vertex 1.809000e+01 3.267365e+01 2.519228e-02
         vertex 1.809000e+01 3.250000e+01 1.010000e+00
      endloop
   endfacet
   facet normal 1.000000e+00 0.000000e+00 0.000000e+00
      outer loop
         vertex 1.809000e+01 3.284202e+01 1.949693e+00
         vertex 1.809000e+01 3.267365e+01 1.994808e+00
         vertex 1.809000e+01 3.250000e+01 1.010000e+00
      endloop
   endfacet
   facet normal 1.000000e+00 0.000000e+00 0.000000e+00
      outer loop
         vertex 1.809000e+01 3.267365e+01 1.994808e+00
         vertex 1.809000e+01 3.250000e+01 2.010000e+00
         vertex 1.809000e+01 3.250000e+01 1.010000e+00
      endloop
   endfacet
   facet normal 1.000000e+00 0.000000e+00 0.000000e+00
      outer loop
         vertex 1.809000e+01 3.326604e+01 1.652788e+00
         vertex 1.809000e+01 3.314279e+01 1.776044e+00
         vertex 1.809000e+01 3.250000e+01 1.010000e+00
      endloop
   endfacet
   facet normal 1.000000e+00 0.000000e+00 0.000000e+00
      outer loop
         vertex 1.809000e+01 3.314279e+01 1.776044e+00
         vertex 1.809000e+01 3.300000e+01 1.876025e+00
         vertex 1.809000e+01 3.250000e+01 1.010000e+00
      endloop
   endfacet
   facet normal 1.000000e+00 0.000000e+00 0.000000e+00
      outer loop
         vertex 1.809000e+01 3.300000e+01 1.876025e+00
         vertex 1.809000e+01 3.284202e+01 1.949693e+00
         vertex 1.809000e+01 3.250000e+01 1.010000e+00
      endloop
   endfacet
   facet normal 1.000000e+00 0.000000e+00 0.000000e+00
      outer loop
         vertex 1.809000e+01 3.348481e+01 1.183648e+00
         vertex 1.809000e+01 3.343969e+01 1.352020e+00
         vertex 1.809000e+01 3.250000e+01 1.010000e+00
      endloop
   endfacet
   facet normal 1.000000e+00 0.000000e+00 0.000000e+00
      outer loop
         vertex 1.809000e+01 3.343969e+01 1.352020e+00
         vertex 1.809000e+01 3.336603e+01 1.510000e+00
         vertex 1.809000e+01 3.250000e+01 1.010000e+00
      endloop
   endfacet
   facet normal 1.000000e+00 0.000000e+00 0.000000e+00
      outer loop
         vertex 1.809000e+01 3.336603e+01 1.510000e+00
         vertex 1.809000e+01 3.326604e+01 1.652788e+00
         vertex 1.809000e+01 3.250000e+01 1.010000e+00
      endloop
   endfacet
   facet normal 1.000000e+00 0.000000e+00 -0.000000e+00
      outer loop
         vertex 1.809000e+01 3.343969e+01 6.679799e-01
         vertex 1.809000e+01 3.348481e+01 8.363518e-01
         vertex 1.809000e+01 3.250000e+01 1.010000e+00
      endloop
   endfacet
   facet normal 1.000000e+00 0.000000e+00 -0.000000e+00
      outer loop
         vertex 1.809000e+01 3.348481e+01 8.363518e-01
         vertex 1.809000e+01 3.350000e+01 1.010000e+00
         vertex 1.809000e+01 3.250000e+01 1.010000e+00
      endloop
   endfacet
   facet normal 1.000000e+00 0.000000e+00 0.000000e+00
      outer loop
         vertex 1.809000e+01 3.350000e+01 1.010000e+00
         vertex 1.809000e+01 3.348481e+01 1.183648e+00
         vertex 1.809000e+01 3.250000e+01 1.010000e+00
      endloop
   endfacet
   facet normal 1.000000e+00 0.000000e+00 -0.000000e+00
      outer loop
         vertex 1.809000e+01 3.314279e+01 2.439556e-01
         vertex 1.809000e+01 3.326604e+01 3.672124e-01
         vertex 1.809000e+01 3.250000e+01 1.010000e+00
      endloop
   endfacet
   facet normal 1.000000e+00 0.000000e+00 -0.000000e+00
      outer loop
         vertex 1.809000e+01 3.326604e+01 3.672124e-01
         vertex 1.809000e+01 3.336603e+01 5.100000e-01
         vertex 1.809000e+01 3.250000e+01 1.010000e+00
      endloop
   endfacet
   facet normal 1.000000e+00 0.000000e+00 -0.000000e+00
      outer loop
         vertex 1.809000e+01 3.336603e+01 5.100000e-01
         vertex 1.809000e+01 3.343969e+01 6.679799e-01
         vertex 1.809000e+01 3.250000e+01 1.010000e+00
      endloop
   endfacet
   facet normal 1.000000e+00 0.000000e+00 -0.000000e+00
      outer loop
         vertex 1.809000e+01 3.267365e+01 2.519228e-02
         vertex 1.809000e+01 3.284202e+01 7.030740e-02
         vertex 1.809000e+01 3.250000e+01 1.010000e+00
      endloop
   endfacet
   facet normal 1.000000e+00 0.000000e+00 -0.000000e+00
      outer loop
         vertex 1.809000e+01 3.284202e+01 7.030740e-02
         vertex 1.809000e+01 3.300000e+01 1.439746e-01
         vertex 1.809000e+01 3.250000e+01 1.010000e+00
      endloop
   endfacet
   facet normal 1.000000e+00 0.000000e+00 -0.000000e+00
      outer loop
         vertex 1.809000e+01 3.300000e+01 1.439746e-01
         vertex 1.809000e+01 3.314279e+01 2.439556e-01
         vertex 1.809000e+01 3.250000e+01 1.010000e+00
      endloop
   endfacet
   facet normal 0.000000e+00 8.715613e-02 9.961947e-01
      outer loop
         vertex 1.809000e+01 3.267365e+01 1.994808e+00
         vertex 9.000022e-02 3.267365e+01 1.994808e+00
         vertex 9.000022e-02 3.250000e+01 2.010000e+00
      endloop
   endfacet
   facet normal 0.000000e+00 8.715613e-02 9.961947e-01
      outer loop
         vertex 1.809000e+01 3.250000e+01 2.010000e+00
         vertex 1.809000e+01 3.267365e+01 1.994808e+00
         vertex 9.000022e-02 3.250000e+01 2.010000e+00
      endloop
   endfacet
   facet normal 0.000000e+00 8.715613e-02 -9.961947e-01
      outer loop
         vertex 9.000022e-02 3.267365e+01 2.519228e-02
         vertex 1.809000e+01 3.250000e+01 9.999960e-03
         vertex 9.000022e-02 3.250000e+01 9.999960e-03
      endloop
   endfacet
   facet normal 0.000000e+00 8.715613e-02 -9.961947e-01
      outer loop
         vertex 9.000022e-02 3.267365e+01 2.519228e-02
         vertex 1.809000e+01 3.267365e+01 2.519228e-02
         vertex 1.809000e+01 3.250000e+01 9.999960e-03
      endloop
   endfacet
   facet normal 0.000000e+00 2.588190e-01 -9.659258e-01
      outer loop
         vertex 9.000022e-02 3.284202e+01 7.030740e-02
         vertex 1.809000e+01 3.267365e+01 2.519228e-02
         vertex 9.000022e-02 3.267365e+01 2.519228e-02
      endloop
   endfacet
   facet normal 0.000000e+00 2.588190e-01 -9.659258e-01
      outer loop
         vertex 9.000022e-02 3.284202e+01 7.030740e-02
         vertex 1.809000e+01 3.284202e+01 7.030740e-02
         vertex 1.809000e+01 3.267365e+01 2.519228e-02
      endloop
   endfacet
   facet normal 0.000000e+00 2.588190e-01 9.659258e-01
      outer loop
         vertex 1.809000e+01 3.267365e+01 1.994808e+00
         vertex 1.809000e+01 3.284202e+01 1.949693e+00
         vertex 9.000022e-02 3.267365e+01 1.994808e+00
      endloop
   endfacet
   facet normal 0.000000e+00 2.588190e-01 9.659258e-01
      outer loop
         vertex 1.809000e+01 3.284202e+01 1.949693e+00
         vertex 9.000022e-02 3.284202e+01 1.949693e+00
         vertex 9.000022e-02 3.267365e+01 1.994808e+00
      endloop
   endfacet
   facet normal 0.000000e+00 4.226182e-01 -9.063078e-01
      outer loop
         vertex 9.000022e-02 3.300000e+01 1.439746e-01
         vertex 1.809000e+01 3.284202e+01 7.030740e-02
         vertex 9.000022e-02 3.284202e+01 7.030740e-02
      endloop
   endfacet
   facet normal 0.000000e+00 4.226182e-01 -9.063078e-01
      outer loop
         vertex 9.000022e-02 3.300000e+01 1.439746e-01
         vertex 1.809000e+01 3.300000e+01 1.439746e-01
         vertex 1.809000e+01 3.284202e+01 7.030740e-02
      endloop
   endfacet
   facet normal 0.000000e+00 4.226182e-01 9.063078e-01
      outer loop
         vertex 1.809000e+01 3.284202e+01 1.949693e+00
         vertex 1.809000e+01 3.300000e+01 1.876025e+00
         vertex 9.000022e-02 3.284202e+01 1.949693e+00
      endloop
   endfacet
   facet normal 0.000000e+00 4.226182e-01 9.063078e-01
      outer loop
         vertex 1.809000e+01 3.300000e+01 1.876025e+00
         vertex 9.000022e-02 3.300000e+01 1.876025e+00
         vertex 9.000022e-02 3.284202e+01 1.949693e+00
      endloop
   endfacet
   facet normal 0.000000e+00 5.735765e-01 -8.191520e-01
      outer loop
         vertex 9.000022e-02 3.314279e+01 2.439556e-01
         vertex 1.809000e+01 3.300000e+01 1.439746e-01
         vertex 9.000022e-02 3.300000e+01 1.439746e-01
      endloop
   endfacet
   facet normal 0.000000e+00 5.735765e-01 -8.191520e-01
      outer loop
         vertex 9.000022e-02 3.314279e+01 2.439556e-01
         vertex 1.809000e+01 3.314279e+01 2.439556e-01
         vertex 1.809000e+01 3.300000e+01 1.439746e-01
      endloop
   endfacet
   facet normal 0.000000e+00 5.735765e-01 8.191520e-01
      outer loop
         vertex 1.809000e+01 3.300000e+01 1.876025e+00
         vertex 1.809000e+01 3.314279e+01 1.776044e+00
         vertex 9.000022e-02 3.300000e+01 1.876025e+00
      endloop
   endfacet
   facet normal 0.000000e+00 5.735765e-01 8.191520e-01
      outer loop
         vertex 1.809000e+01 3.314279e+01 1.776044e+00
         vertex 9.000022e-02 3.314279e+01 1.776044e+00
         vertex 9.000022e-02 3.300000e+01 1.876025e+00
      endloop
   endfacet
   facet normal 0.000000e+00 7.071068e-01 -7.071068e-01
      outer loop
         vertex 9.000022e-02 3.326604e+01 3.672124e-01
         vertex 1.809000e+01 3.314279e+01 2.439556e-01
         vertex 9.000022e-02 3.314279e+01 2.439556e-01
      endloop
   endfacet
   facet normal 0.000000e+00 7.071068e-01 -7.071068e-01
      outer loop
         vertex 9.000022e-02 3.326604e+01 3.672124e-01
         vertex 1.809000e+01 3.326604e+01 3.672124e-01
         vertex 1.809000e+01 3.314279e+01 2.439556e-01
      endloop
   endfacet
   facet normal 0.000000e+00 7.071068e-01 7.071068e-01
      outer loop
         vertex 1.809000e+01 3.314279e+01 1.776044e+00
         vertex 1.809000e+01 3.326604e+01 1.652788e+00
         vertex 9.000022e-02 3.314279e+01 1.776044e+00
      endloop
   endfacet
   facet normal 0.000000e+00 7.071068e-01 7.071068e-01
      outer loop
         vertex 1.809000e+01 3.326604e+01 1.652788e+00
         vertex 9.000022e-02 3.326604e+01 1.652788e+00
         vertex 9.000022e-02 3.314279e+01 1.776044e+00
      endloop
   endfacet
   facet normal 0.000000e+00 8.191520e-01 -5.735765e-01
      outer loop
         vertex 9.000022e-02 3.336603e+01 5.100000e-01
         vertex 1.809000e+01 3.326604e+01 3.672124e-01
         vertex 9.000022e-02 3.326604e+01 3.672124e-01
      endloop
   endfacet
   facet normal 0.000000e+00 8.191520e-01 -5.735765e-01
      outer loop
         vertex 9.000022e-02 3.336603e+01 5.100000e-01
         vertex 1.809000e+01 3.336603e+01 5.100000e-01
         vertex 1.809000e+01 3.326604e+01 3.672124e-01
      endloop
   endfacet
   facet normal 0.000000e+00 8.191520e-01 5.735765e-01
      outer loop
         vertex 1.809000e+01 3.326604e+01 1.652788e+00
         vertex 1.809000e+01 3.336603e+01 1.510000e+00
         vertex 9.000022e-02 3.326604e+01 1.652788e+00
      endloop
   endfacet
   facet normal 0.000000e+00 8.191520e-01 5.735765e-01
      outer loop
         vertex 1.809000e+01 3.336603e+01 1.510000e+00
         vertex 9.000022e-02 3.336603e+01 1.510000e+00
         vertex 9.000022e-02 3.326604e+01 1.652788e+00
      endloop
   endfacet
   facet normal 0.000000e+00 9.063078e-01 -4.226182e-01
      outer loop
         vertex 9.000022e-02 3.343969e+01 6.679799e-01
         vertex 1.809000e+01 3.336603e+01 5.100000e-01
         vertex 9.000022e-02 3.336603e+01 5.100000e-01
      endloop
   endfacet
   facet normal 0.000000e+00 9.063078e-01 -4.226182e-01
      outer loop
         vertex 9.000022e-02 3.343969e+01 6.679799e-01
         vertex 1.809000e+01 3.343969e+01 6.679799e-01
         vertex 1.809000e+01 3.336603e+01 5.100000e-01
      endloop
   endfacet
   facet normal 0.000000e+00 9.063078e-01 4.226182e-01
      outer loop
         vertex 1.809000e+01 3.336603e+01 1.510000e+00
         vertex 1.809000e+01 3.343969e+01 1.352020e+00
         vertex 9.000022e-02 3.336603e+01 1.510000e+00
      endloop
   endfacet
   facet normal 0.000000e+00 9.063078e-01 4.226182e-01
      outer loop
         vertex 1.809000e+01 3.343969e+01 1.352020e+00
         vertex 9.000022e-02 3.343969e+01 1.352020e+00
         vertex 9.000022e-02 3.336603e+01 1.510000e+00
      endloop
   endfacet
   facet normal 0.000000e+00 9.659258e-01 -2.588190e-01
      outer loop
         vertex 9.000022e-02 3.348481e+01 8.363518e-01
         vertex 1.809000e+01 3.343969e+01 6.679799e-01
         vertex 9.000022e-02 3.343969e+01 6.679799e-01
      endloop
   endfacet
   facet normal 0.000000e+00 9.659258e-01 -2.588190e-01
      outer loop
         vertex 9.000022e-02 3.348481e+01 8.363518e-01
         vertex 1.809000e+01 3.348481e+01 8.363518e-01
         vertex 1.809000e+01 3.343969e+01 6.679799e-01
      endloop
   endfacet
   facet normal 0.000000e+00 9.659258e-01 2.588190e-01
      outer loop
         vertex 1.809000e+01 3.343969e+01 1.352020e+00
         vertex 1.809000e+01 3.348481e+01 1.183648e+00
         vertex 9.000022e-02 3.343969e+01 1.352020e+00
      endloop
   endfacet
   facet normal 0.000000e+00 9.659258e-01 2.588190e-01
      outer loop
         vertex 1.809000e+01 3.348481e+01 1.183648e+00
         vertex 9.000022e-02 3.348481e+01 1.183648e+00
         vertex 9.000022e-02 3.343969e+01 1.352020e+00
      endloop
   endfacet
   facet normal 0.000000e+00 9.961947e-01 -8.715613e-02
      outer loop
         vertex 9.000022e-02 3.350000e+01 1.010000e+00
         vertex 1.809000e+01 3.348481e+01 8.363518e-01
         vertex 9.000022e-02 3.348481e+01 8.363518e-01
      endloop
   endfacet
   facet normal 0.000000e+00 9.961947e-01 -8.715613e-02
      outer loop
         vertex 9.000022e-02 3.350000e+01 1.010000e+00
         vertex 1.809000e+01 3.350000e+01 1.010000e+00
         vertex 1.809000e+01 3.348481e+01 8.363518e-01
      endloop
   endfacet
   facet normal 0.000000e+00 9.961947e-01 8.715613e-02
      outer loop
         vertex 1.809000e+01 3.348481e+01 1.183648e+00
         vertex 1.809000e+01 3.350000e+01 1.010000e+00
         vertex 9.000022e-02 3.348481e+01 1.183648e+00
      endloop
   endfacet
   facet normal 0.000000e+00 9.961947e-01 8.715613e-02
      outer loop
         vertex 1.809000e+01 3.350000e+01 1.010000e+00
         vertex 9.000022e-02 3.350000e+01 1.010000e+00
         vertex 9.000022e-02 3.348481e+01 1.183648e+00
      endloop
   endfacet
endsolid