solid Ensamblaje perno 1
   facet normal 0.000000e+00 -9.961947e-01 -8.715613e-02
      outer loop
         vertex 7.999968e-02 5.198663e+01 2.663584e+01
         vertex 1.608000e+01 5.197144e+01 2.680949e+01
         vertex 7.999968e-02 5.197144e+01 2.680949e+01
      endloop
   endfacet
   facet normal 0.000000e+00 -9.961947e-01 8.715613e-02
      outer loop
         vertex 1.608000e+01 5.197144e+01 2.680949e+01
         vertex 1.608000e+01 5.198663e+01 2.698314e+01
         vertex 7.999968e-02 5.197144e+01 2.680949e+01
      endloop
   endfacet
   facet normal 0.000000e+00 -9.961947e-01 8.715613e-02
      outer loop
         vertex 1.608000e+01 5.198663e+01 2.698314e+01
         vertex 7.999968e-02 5.198663e+01 2.698314e+01
         vertex 7.999968e-02 5.197144e+01 2.680949e+01
      endloop
   endfacet
   facet normal -1.000000e+00 0.000000e+00 0.000000e+00
      outer loop
         vertex 7.999968e-02 5.297144e+01 2.680949e+01
         vertex 7.999968e-02 5.198663e+01 2.663584e+01
         vertex 7.999968e-02 5.197144e+01 2.680949e+01
      endloop
   endfacet
   facet normal -1.000000e+00 0.000000e+00 -0.000000e+00
      outer loop
         vertex 7.999968e-02 5.198663e+01 2.698314e+01
         vertex 7.999968e-02 5.297144e+01 2.680949e+01
         vertex 7.999968e-02 5.197144e+01 2.680949e+01
      endloop
   endfacet
   facet normal 0.000000e+00 -9.961947e-01 -8.715613e-02
      outer loop
         vertex 7.999968e-02 5.198663e+01 2.663584e+01
         vertex 1.608000e+01 5.198663e+01 2.663584e+01
         vertex 1.608000e+01 5.197144e+01 2.680949e+01
      endloop
   endfacet
   facet normal 1.000000e+00 0.000000e+00 0.000000e+00
      outer loop
         vertex 1.608000e+01 5.297144e+01 2.680949e+01
         vertex 1.608000e+01 5.198663e+01 2.698314e+01
         vertex 1.608000e+01 5.197144e+01 2.680949e+01
      endloop
   endfacet
   facet normal 1.000000e+00 0.000000e+00 -0.000000e+00
      outer loop
         vertex 1.608000e+01 5.198663e+01 2.663584e+01
         vertex 1.608000e+01 5.297144e+01 2.680949e+01
         vertex 1.608000e+01 5.197144e+01 2.680949e+01
      endloop
   endfacet
   facet normal 0.000000e+00 -9.659258e-01 -2.588190e-01
      outer loop
         vertex 7.999968e-02 5.203174e+01 2.646747e+01
         vertex 1.608000e+01 5.198663e+01 2.663584e+01
         vertex 7.999968e-02 5.198663e+01 2.663584e+01
      endloop
   endfacet
   facet normal -1.000000e+00 0.000000e+00 0.000000e+00
      outer loop
         vertex 7.999968e-02 5.297144e+01 2.680949e+01
         vertex 7.999968e-02 5.203174e+01 2.646747e+01
         vertex 7.999968e-02 5.198663e+01 2.663584e+01
      endloop
   endfacet
   facet normal 0.000000e+00 -9.659258e-01 -2.588190e-01
      outer loop
         vertex 7.999968e-02 5.203174e+01 2.646747e+01
         vertex 1.608000e+01 5.203174e+01 2.646747e+01
         vertex 1.608000e+01 5.198663e+01 2.663584e+01
      endloop
   endfacet
   facet normal 1.000000e+00 0.000000e+00 -0.000000e+00
      outer loop
         vertex 1.608000e+01 5.203174e+01 2.646747e+01
         vertex 1.608000e+01 5.297144e+01 2.680949e+01
         vertex 1.608000e+01 5.198663e+01 2.663584e+01
      endloop
   endfacet
   facet normal 0.000000e+00 -9.659258e-01 2.588190e-01
      outer loop
         vertex 1.608000e+01 5.198663e+01 2.698314e+01
         vertex 1.608000e+01 5.203174e+01 2.715151e+01
         vertex 7.999968e-02 5.198663e+01 2.698314e+01
      endloop
   endfacet
   facet normal 0.000000e+00 -9.659258e-01 2.588190e-01
      outer loop
         vertex 1.608000e+01 5.203174e+01 2.715151e+01
         vertex 7.999968e-02 5.203174e+01 2.715151e+01
         vertex 7.999968e-02 5.198663e+01 2.698314e+01
      endloop
   endfacet
   facet normal -1.000000e+00 0.000000e+00 -0.000000e+00
      outer loop
         vertex 7.999968e-02 5.203174e+01 2.715151e+01
         vertex 7.999968e-02 5.297144e+01 2.680949e+01
         vertex 7.999968e-02 5.198663e+01 2.698314e+01
      endloop
   endfacet
   facet normal 1.000000e+00 0.000000e+00 0.000000e+00
      outer loop
         vertex 1.608000e+01 5.297144e+01 2.680949e+01
         vertex 1.608000e+01 5.203174e+01 2.715151e+01
         vertex 1.608000e+01 5.198663e+01 2.698314e+01
      endloop
   endfacet
   facet normal 0.000000e+00 -9.063078e-01 -4.226182e-01
      outer loop
         vertex 7.999968e-02 5.210541e+01 2.630949e+01
         vertex 1.608000e+01 5.203174e+01 2.646747e+01
         vertex 7.999968e-02 5.203174e+01 2.646747e+01
      endloop
   endfacet
   facet normal -1.000000e+00 0.000000e+00 0.000000e+00
      outer loop
         vertex 7.999968e-02 5.297144e+01 2.680949e+01
         vertex 7.999968e-02 5.210541e+01 2.630949e+01
         vertex 7.999968e-02 5.203174e+01 2.646747e+01
      endloop
   endfacet
   facet normal 0.000000e+00 -9.063078e-01 -4.226182e-01
      outer loop
         vertex 7.999968e-02 5.210541e+01 2.630949e+01
         vertex 1.608000e+01 5.210541e+01 2.630949e+01
         vertex 1.608000e+01 5.203174e+01 2.646747e+01
      endloop
   endfacet
   facet normal 1.000000e+00 0.000000e+00 -0.000000e+00
      outer loop
         vertex 1.608000e+01 5.210541e+01 2.630949e+01
         vertex 1.608000e+01 5.297144e+01 2.680949e+01
         vertex 1.608000e+01 5.203174e+01 2.646747e+01
      endloop
   endfacet
   facet normal 0.000000e+00 -9.063078e-01 4.226182e-01
      outer loop
         vertex 1.608000e+01 5.203174e+01 2.715151e+01
         vertex 1.608000e+01 5.210541e+01 2.730949e+01
         vertex 7.999968e-02 5.203174e+01 2.715151e+01
      endloop
   endfacet
   facet normal 0.000000e+00 -9.063078e-01 4.226182e-01
      outer loop
         vertex 1.608000e+01 5.210541e+01 2.730949e+01
         vertex 7.999968e-02 5.210541e+01 2.730949e+01
         vertex 7.999968e-02 5.203174e+01 2.715151e+01
      endloop
   endfacet
   facet normal -1.000000e+00 0.000000e+00 -0.000000e+00
      outer loop
         vertex 7.999968e-02 5.210541e+01 2.730949e+01
         vertex 7.999968e-02 5.297144e+01 2.680949e+01
         vertex 7.999968e-02 5.203174e+01 2.715151e+01
      endloop
   endfacet
   facet normal 1.000000e+00 0.000000e+00 0.000000e+00
      outer loop
         vertex 1.608000e+01 5.297144e+01 2.680949e+01
         vertex 1.608000e+01 5.210541e+01 2.730949e+01
         vertex 1.608000e+01 5.203174e+01 2.715151e+01
      endloop
   endfacet
   facet normal 0.000000e+00 -8.191520e-01 -5.735765e-01
      outer loop
         vertex 7.999968e-02 5.220539e+01 2.616671e+01
         vertex 1.608000e+01 5.210541e+01 2.630949e+01
         vertex 7.999968e-02 5.210541e+01 2.630949e+01
      endloop
   endfacet
   facet normal -1.000000e+00 0.000000e+00 0.000000e+00
      outer loop
         vertex 7.999968e-02 5.297144e+01 2.680949e+01
         vertex 7.999968e-02 5.220539e+01 2.616671e+01
         vertex 7.999968e-02 5.210541e+01 2.630949e+01
      endloop
   endfacet
   facet normal 0.000000e+00 -8.191520e-01 -5.735765e-01
      outer loop
         vertex 7.999968e-02 5.220539e+01 2.616671e+01
         vertex 1.608000e+01 5.220539e+01 2.616671e+01
         vertex 1.608000e+01 5.210541e+01 2.630949e+01
      endloop
   endfacet
   facet normal 1.000000e+00 0.000000e+00 -0.000000e+00
      outer loop
         vertex 1.608000e+01 5.220539e+01 2.616671e+01
         vertex 1.608000e+01 5.297144e+01 2.680949e+01
         vertex 1.608000e+01 5.210541e+01 2.630949e+01
      endloop
   endfacet
   facet normal 0.000000e+00 -8.191520e-01 5.735765e-01
      outer loop
         vertex 1.608000e+01 5.210541e+01 2.730949e+01
         vertex 1.608000e+01 5.220539e+01 2.745228e+01
         vertex 7.999968e-02 5.210541e+01 2.730949e+01
      endloop
   endfacet
   facet normal 0.000000e+00 -8.191520e-01 5.735765e-01
      outer loop
         vertex 1.608000e+01 5.220539e+01 2.745228e+01
         vertex 7.999968e-02 5.220539e+01 2.745228e+01
         vertex 7.999968e-02 5.210541e+01 2.730949e+01
      endloop
   endfacet
   facet normal -1.000000e+00 0.000000e+00 -0.000000e+00
      outer loop
         vertex 7.999968e-02 5.220539e+01 2.745228e+01
         vertex 7.999968e-02 5.297144e+01 2.680949e+01
         vertex 7.999968e-02 5.210541e+01 2.730949e+01
      endloop
   endfacet
   facet normal 1.000000e+00 0.000000e+00 0.000000e+00
      outer loop
         vertex 1.608000e+01 5.297144e+01 2.680949e+01
         vertex 1.608000e+01 5.220539e+01 2.745228e+01
         vertex 1.608000e+01 5.210541e+01 2.730949e+01
      endloop
   endfacet
   facet normal 0.000000e+00 -7.071068e-01 -7.071068e-01
      outer loop
         vertex 7.999968e-02 5.232865e+01 2.604345e+01
         vertex 1.608000e+01 5.220539e+01 2.616671e+01
         vertex 7.999968e-02 5.220539e+01 2.616671e+01
      endloop
   endfacet
   facet normal -1.000000e+00 0.000000e+00 0.000000e+00
      outer loop
         vertex 7.999968e-02 5.297144e+01 2.680949e+01
         vertex 7.999968e-02 5.232865e+01 2.604345e+01
         vertex 7.999968e-02 5.220539e+01 2.616671e+01
      endloop
   endfacet
   facet normal 0.000000e+00 -7.071068e-01 -7.071068e-01
      outer loop
         vertex 7.999968e-02 5.232865e+01 2.604345e+01
         vertex 1.608000e+01 5.232865e+01 2.604345e+01
         vertex 1.608000e+01 5.220539e+01 2.616671e+01
      endloop
   endfacet
   facet normal 1.000000e+00 0.000000e+00 -0.000000e+00
      outer loop
         vertex 1.608000e+01 5.232865e+01 2.604345e+01
         vertex 1.608000e+01 5.297144e+01 2.680949e+01
         vertex 1.608000e+01 5.220539e+01 2.616671e+01
      endloop
   endfacet
   facet normal 0.000000e+00 -7.071068e-01 7.071068e-01
      outer loop
         vertex 1.608000e+01 5.220539e+01 2.745228e+01
         vertex 1.608000e+01 5.232865e+01 2.757554e+01
         vertex 7.999968e-02 5.220539e+01 2.745228e+01
      endloop
   endfacet
   facet normal 0.000000e+00 -7.071068e-01 7.071068e-01
      outer loop
         vertex 1.608000e+01 5.232865e+01 2.757554e+01
         vertex 7.999968e-02 5.232865e+01 2.757554e+01
         vertex 7.999968e-02 5.220539e+01 2.745228e+01
      endloop
   endfacet
   facet normal -1.000000e+00 0.000000e+00 -0.000000e+00
      outer loop
         vertex 7.999968e-02 5.232865e+01 2.757554e+01
         vertex 7.999968e-02 5.297144e+01 2.680949e+01
         vertex 7.999968e-02 5.220539e+01 2.745228e+01
      endloop
   endfacet
   facet normal 1.000000e+00 0.000000e+00 0.000000e+00
      outer loop
         vertex 1.608000e+01 5.297144e+01 2.680949e+01
         vertex 1.608000e+01 5.232865e+01 2.757554e+01
         vertex 1.608000e+01 5.220539e+01 2.745228e+01
      endloop
   endfacet
   facet normal 0.000000e+00 -5.735765e-01 -8.191520e-01
      outer loop
         vertex 7.999968e-02 5.247144e+01 2.594347e+01
         vertex 1.608000e+01 5.232865e+01 2.604345e+01
         vertex 7.999968e-02 5.232865e+01 2.604345e+01
      endloop
   endfacet
   facet normal -1.000000e+00 0.000000e+00 0.000000e+00
      outer loop
         vertex 7.999968e-02 5.297144e+01 2.680949e+01
         vertex 7.999968e-02 5.247144e+01 2.594347e+01
         vertex 7.999968e-02 5.232865e+01 2.604345e+01
      endloop
   endfacet
   facet normal 0.000000e+00 -5.735765e-01 -8.191520e-01
      outer loop
         vertex 7.999968e-02 5.247144e+01 2.594347e+01
         vertex 1.608000e+01 5.247144e+01 2.594347e+01
         vertex 1.608000e+01 5.232865e+01 2.604345e+01
      endloop
   endfacet
   facet normal 1.000000e+00 0.000000e+00 -0.000000e+00
      outer loop
         vertex 1.608000e+01 5.247144e+01 2.594347e+01
         vertex 1.608000e+01 5.297144e+01 2.680949e+01
         vertex 1.608000e+01 5.232865e+01 2.604345e+01
      endloop
   endfacet
   facet normal 0.000000e+00 -5.735765e-01 8.191520e-01
      outer loop
         vertex 1.608000e+01 5.232865e+01 2.757554e+01
         vertex 1.608000e+01 5.247144e+01 2.767552e+01
         vertex 7.999968e-02 5.232865e+01 2.757554e+01
      endloop
   endfacet
   facet normal 0.000000e+00 -5.735765e-01 8.191520e-01
      outer loop
         vertex 1.608000e+01 5.247144e+01 2.767552e+01
         vertex 7.999968e-02 5.247144e+01 2.767552e+01
         vertex 7.999968e-02 5.232865e+01 2.757554e+01
      endloop
   endfacet
   facet normal -1.000000e+00 0.000000e+00 -0.000000e+00
      outer loop
         vertex 7.999968e-02 5.247144e+01 2.767552e+01
         vertex 7.999968e-02 5.297144e+01 2.680949e+01
         vertex 7.999968e-02 5.232865e+01 2.757554e+01
      endloop
   endfacet
   facet normal 1.000000e+00 0.000000e+00 0.000000e+00
      outer loop
         vertex 1.608000e+01 5.297144e+01 2.680949e+01
         vertex 1.608000e+01 5.247144e+01 2.767552e+01
         vertex 1.608000e+01 5.232865e+01 2.757554e+01
      endloop
   endfacet
   facet normal 0.000000e+00 -4.226182e-01 -9.063078e-01
      outer loop
         vertex 7.999968e-02 5.262942e+01 2.586980e+01
         vertex 1.608000e+01 5.247144e+01 2.594347e+01
         vertex 7.999968e-02 5.247144e+01 2.594347e+01
      endloop
   endfacet
   facet normal -1.000000e+00 0.000000e+00 0.000000e+00
      outer loop
         vertex 7.999968e-02 5.297144e+01 2.680949e+01
         vertex 7.999968e-02 5.262942e+01 2.586980e+01
         vertex 7.999968e-02 5.247144e+01 2.594347e+01
      endloop
   endfacet
   facet normal 0.000000e+00 -4.226182e-01 -9.063078e-01
      outer loop
         vertex 7.999968e-02 5.262942e+01 2.586980e+01
         vertex 1.608000e+01 5.262942e+01 2.586980e+01
         vertex 1.608000e+01 5.247144e+01 2.594347e+01
      endloop
   endfacet
   facet normal 1.000000e+00 0.000000e+00 -0.000000e+00
      outer loop
         vertex 1.608000e+01 5.262942e+01 2.586980e+01
         vertex 1.608000e+01 5.297144e+01 2.680949e+01
         vertex 1.608000e+01 5.247144e+01 2.594347e+01
      endloop
   endfacet
   facet normal 0.000000e+00 -4.226182e-01 9.063078e-01
      outer loop
         vertex 1.608000e+01 5.247144e+01 2.767552e+01
         vertex 1.608000e+01 5.262942e+01 2.774919e+01
         vertex 7.999968e-02 5.247144e+01 2.767552e+01
      endloop
   endfacet
   facet normal 0.000000e+00 -4.226182e-01 9.063078e-01
      outer loop
         vertex 1.608000e+01 5.262942e+01 2.774919e+01
         vertex 7.999968e-02 5.262942e+01 2.774919e+01
         vertex 7.999968e-02 5.247144e+01 2.767552e+01
      endloop
   endfacet
   facet normal -1.000000e+00 0.000000e+00 -0.000000e+00
      outer loop
         vertex 7.999968e-02 5.262942e+01 2.774919e+01
         vertex 7.999968e-02 5.297144e+01 2.680949e+01
         vertex 7.999968e-02 5.247144e+01 2.767552e+01
      endloop
   endfacet
   facet normal 1.000000e+00 0.000000e+00 0.000000e+00
      outer loop
         vertex 1.608000e+01 5.297144e+01 2.680949e+01
         vertex 1.608000e+01 5.262942e+01 2.774919e+01
         vertex 1.608000e+01 5.247144e+01 2.767552e+01
      endloop
   endfacet
   facet normal 0.000000e+00 -2.588190e-01 -9.659258e-01
      outer loop
         vertex 7.999968e-02 5.279779e+01 2.582468e+01
         vertex 1.608000e+01 5.262942e+01 2.586980e+01
         vertex 7.999968e-02 5.262942e+01 2.586980e+01
      endloop
   endfacet
   facet normal -1.000000e+00 0.000000e+00 0.000000e+00
      outer loop
         vertex 7.999968e-02 5.297144e+01 2.680949e+01
         vertex 7.999968e-02 5.279779e+01 2.582468e+01
         vertex 7.999968e-02 5.262942e+01 2.586980e+01
      endloop
   endfacet
   facet normal 0.000000e+00 -2.588190e-01 -9.659258e-01
      outer loop
         vertex 7.999968e-02 5.279779e+01 2.582468e+01
         vertex 1.608000e+01 5.279779e+01 2.582468e+01
         vertex 1.608000e+01 5.262942e+01 2.586980e+01
      endloop
   endfacet
   facet normal 1.000000e+00 0.000000e+00 -0.000000e+00
      outer loop
         vertex 1.608000e+01 5.279779e+01 2.582468e+01
         vertex 1.608000e+01 5.297144e+01 2.680949e+01
         vertex 1.608000e+01 5.262942e+01 2.586980e+01
      endloop
   endfacet
   facet normal 0.000000e+00 -2.588190e-01 9.659258e-01
      outer loop
         vertex 1.608000e+01 5.262942e+01 2.774919e+01
         vertex 1.608000e+01 5.279779e+01 2.779430e+01
         vertex 7.999968e-02 5.262942e+01 2.774919e+01
      endloop
   endfacet
   facet normal 0.000000e+00 -2.588190e-01 9.659258e-01
      outer loop
         vertex 1.608000e+01 5.279779e+01 2.779430e+01
         vertex 7.999968e-02 5.279779e+01 2.779430e+01
         vertex 7.999968e-02 5.262942e+01 2.774919e+01
      endloop
   endfacet
   facet normal -1.000000e+00 0.000000e+00 -0.000000e+00
      outer loop
         vertex 7.999968e-02 5.279779e+01 2.779430e+01
         vertex 7.999968e-02 5.297144e+01 2.680949e+01
         vertex 7.999968e-02 5.262942e+01 2.774919e+01
      endloop
   endfacet
   facet normal 1.000000e+00 0.000000e+00 0.000000e+00
      outer loop
         vertex 1.608000e+01 5.297144e+01 2.680949e+01
         vertex 1.608000e+01 5.279779e+01 2.779430e+01
         vertex 1.608000e+01 5.262942e+01 2.774919e+01
      endloop
   endfacet
   facet normal 0.000000e+00 -8.715613e-02 -9.961947e-01
      outer loop
         vertex 7.999968e-02 5.297144e+01 2.580949e+01
         vertex 1.608000e+01 5.279779e+01 2.582468e+01
         vertex 7.999968e-02 5.279779e+01 2.582468e+01
      endloop
   endfacet
   facet normal -1.000000e+00 0.000000e+00 -0.000000e+00
      outer loop
         vertex 7.999968e-02 5.297144e+01 2.680949e+01
         vertex 7.999968e-02 5.297144e+01 2.580949e+01
         vertex 7.999968e-02 5.279779e+01 2.582468e+01
      endloop
   endfacet
   facet normal 0.000000e+00 -8.715613e-02 -9.961947e-01
      outer loop
         vertex 7.999968e-02 5.297144e+01 2.580949e+01
         vertex 1.608000e+01 5.297144e+01 2.580949e+01
         vertex 1.608000e+01 5.279779e+01 2.582468e+01
      endloop
   endfacet
   facet normal 1.000000e+00 0.000000e+00 0.000000e+00
      outer loop
         vertex 1.608000e+01 5.297144e+01 2.580949e+01
         vertex 1.608000e+01 5.297144e+01 2.680949e+01
         vertex 1.608000e+01 5.279779e+01 2.582468e+01
      endloop
   endfacet
   facet normal 0.000000e+00 -8.715613e-02 9.961947e-01
      outer loop
         vertex 1.608000e+01 5.279779e+01 2.779430e+01
         vertex 1.608000e+01 5.297144e+01 2.780949e+01
         vertex 7.999968e-02 5.279779e+01 2.779430e+01
      endloop
   endfacet
   facet normal 0.000000e+00 -8.715613e-02 9.961947e-01
      outer loop
         vertex 1.608000e+01 5.297144e+01 2.780949e+01
         vertex 7.999968e-02 5.297144e+01 2.780949e+01
         vertex 7.999968e-02 5.279779e+01 2.779430e+01
      endloop
   endfacet
   facet normal -1.000000e+00 0.000000e+00 -0.000000e+00
      outer loop
         vertex 7.999968e-02 5.297144e+01 2.780949e+01
         vertex 7.999968e-02 5.297144e+01 2.680949e+01
         vertex 7.999968e-02 5.279779e+01 2.779430e+01
      endloop
   endfacet
   facet normal 1.000000e+00 0.000000e+00 -0.000000e+00
      outer loop
         vertex 1.608000e+01 5.297144e+01 2.680949e+01
         vertex 1.608000e+01 5.297144e+01 2.780949e+01
         vertex 1.608000e+01 5.279779e+01 2.779430e+01
      endloop
   endfacet
   facet normal -1.000000e+00 -0.000000e+00 0.000000e+00
      outer loop
         vertex 7.999968e-02 5.331346e+01 2.586980e+01
         vertex 7.999968e-02 5.314508e+01 2.582468e+01
         vertex 7.999968e-02 5.297144e+01 2.680949e+01
      endloop
   endfacet
   facet normal -1.000000e+00 -0.000000e+00 0.000000e+00
      outer loop
         vertex 7.999968e-02 5.314508e+01 2.582468e+01
         vertex 7.999968e-02 5.297144e+01 2.580949e+01
         vertex 7.999968e-02 5.297144e+01 2.680949e+01
      endloop
   endfacet
   facet normal -1.000000e+00 -0.000000e+00 0.000000e+00
      outer loop
         vertex 7.999968e-02 5.373748e+01 2.616671e+01
         vertex 7.999968e-02 5.361422e+01 2.604345e+01
         vertex 7.999968e-02 5.297144e+01 2.680949e+01
      endloop
   endfacet
   facet normal -1.000000e+00 -0.000000e+00 0.000000e+00
      outer loop
         vertex 7.999968e-02 5.361422e+01 2.604345e+01
         vertex 7.999968e-02 5.347144e+01 2.594347e+01
         vertex 7.999968e-02 5.297144e+01 2.680949e+01
      endloop
   endfacet
   facet normal -1.000000e+00 -0.000000e+00 0.000000e+00
      outer loop
         vertex 7.999968e-02 5.347144e+01 2.594347e+01
         vertex 7.999968e-02 5.331346e+01 2.586980e+01
         vertex 7.999968e-02 5.297144e+01 2.680949e+01
      endloop
   endfacet
   facet normal -1.000000e+00 -0.000000e+00 0.000000e+00
      outer loop
         vertex 7.999968e-02 5.395624e+01 2.663584e+01
         vertex 7.999968e-02 5.391113e+01 2.646747e+01
         vertex 7.999968e-02 5.297144e+01 2.680949e+01
      endloop
   endfacet
   facet normal -1.000000e+00 -0.000000e+00 0.000000e+00
      outer loop
         vertex 7.999968e-02 5.391113e+01 2.646747e+01
         vertex 7.999968e-02 5.383746e+01 2.630949e+01
         vertex 7.999968e-02 5.297144e+01 2.680949e+01
      endloop
   endfacet
   facet normal -1.000000e+00 -0.000000e+00 0.000000e+00
      outer loop
         vertex 7.999968e-02 5.383746e+01 2.630949e+01
         vertex 7.999968e-02 5.373748e+01 2.616671e+01
         vertex 7.999968e-02 5.297144e+01 2.680949e+01
      endloop
   endfacet
   facet normal -1.000000e+00 0.000000e+00 -0.000000e+00
      outer loop
         vertex 7.999968e-02 5.391113e+01 2.715151e+01
         vertex 7.999968e-02 5.395624e+01 2.698314e+01
         vertex 7.999968e-02 5.297144e+01 2.680949e+01
      endloop
   endfacet
   facet normal -1.000000e+00 0.000000e+00 -0.000000e+00
      outer loop
         vertex 7.999968e-02 5.395624e+01 2.698314e+01
         vertex 7.999968e-02 5.397144e+01 2.680949e+01
         vertex 7.999968e-02 5.297144e+01 2.680949e+01
      endloop
   endfacet
   facet normal -1.000000e+00 0.000000e+00 0.000000e+00
      outer loop
         vertex 7.999968e-02 5.397144e+01 2.680949e+01
         vertex 7.999968e-02 5.395624e+01 2.663584e+01
         vertex 7.999968e-02 5.297144e+01 2.680949e+01
      endloop
   endfacet
   facet normal -1.000000e+00 0.000000e+00 -0.000000e+00
      outer loop
         vertex 7.999968e-02 5.361422e+01 2.757554e+01
         vertex 7.999968e-02 5.373748e+01 2.745228e+01
         vertex 7.999968e-02 5.297144e+01 2.680949e+01
      endloop
   endfacet
   facet normal -1.000000e+00 0.000000e+00 -0.000000e+00
      outer loop
         vertex 7.999968e-02 5.373748e+01 2.745228e+01
         vertex 7.999968e-02 5.383746e+01 2.730949e+01
         vertex 7.999968e-02 5.297144e+01 2.680949e+01
      endloop
   endfacet
   facet normal -1.000000e+00 0.000000e+00 -0.000000e+00
      outer loop
         vertex 7.999968e-02 5.383746e+01 2.730949e+01
         vertex 7.999968e-02 5.391113e+01 2.715151e+01
         vertex 7.999968e-02 5.297144e+01 2.680949e+01
      endloop
   endfacet
   facet normal -1.000000e+00 0.000000e+00 -0.000000e+00
      outer loop
         vertex 7.999968e-02 5.314508e+01 2.779430e+01
         vertex 7.999968e-02 5.331346e+01 2.774919e+01
         vertex 7.999968e-02 5.297144e+01 2.680949e+01
      endloop
   endfacet
   facet normal -1.000000e+00 0.000000e+00 -0.000000e+00
      outer loop
         vertex 7.999968e-02 5.331346e+01 2.774919e+01
         vertex 7.999968e-02 5.347144e+01 2.767552e+01
         vertex 7.999968e-02 5.297144e+01 2.680949e+01
      endloop
   endfacet
   facet normal -1.000000e+00 0.000000e+00 -0.000000e+00
      outer loop
         vertex 7.999968e-02 5.347144e+01 2.767552e+01
         vertex 7.999968e-02 5.361422e+01 2.757554e+01
         vertex 7.999968e-02 5.297144e+01 2.680949e+01
      endloop
   endfacet
   facet normal -1.000000e+00 0.000000e+00 0.000000e+00
      outer loop
         vertex 7.999968e-02 5.297144e+01 2.780949e+01
         vertex 7.999968e-02 5.314508e+01 2.779430e+01
         vertex 7.999968e-02 5.297144e+01 2.680949e+01
      endloop
   endfacet
   facet normal 1.000000e+00 0.000000e+00 -0.000000e+00
      outer loop
         vertex 1.608000e+01 5.297144e+01 2.580949e+01
         vertex 1.608000e+01 5.314508e+01 2.582468e+01
         vertex 1.608000e+01 5.297144e+01 2.680949e+01
      endloop
   endfacet
   facet normal 1.000000e+00 0.000000e+00 0.000000e+00
      outer loop
         vertex 1.608000e+01 5.331346e+01 2.774919e+01
         vertex 1.608000e+01 5.314508e+01 2.779430e+01
         vertex 1.608000e+01 5.297144e+01 2.680949e+01
      endloop
   endfacet
   facet normal 1.000000e+00 0.000000e+00 0.000000e+00
      outer loop
         vertex 1.608000e+01 5.314508e+01 2.779430e+01
         vertex 1.608000e+01 5.297144e+01 2.780949e+01
         vertex 1.608000e+01 5.297144e+01 2.680949e+01
      endloop
   endfacet
   facet normal 1.000000e+00 0.000000e+00 0.000000e+00
      outer loop
         vertex 1.608000e+01 5.373748e+01 2.745228e+01
         vertex 1.608000e+01 5.361422e+01 2.757554e+01
         vertex 1.608000e+01 5.297144e+01 2.680949e+01
      endloop
   endfacet
   facet normal 1.000000e+00 0.000000e+00 0.000000e+00
      outer loop
         vertex 1.608000e+01 5.361422e+01 2.757554e+01
         vertex 1.608000e+01 5.347144e+01 2.767552e+01
         vertex 1.608000e+01 5.297144e+01 2.680949e+01
      endloop
   endfacet
   facet normal 1.000000e+00 0.000000e+00 0.000000e+00
      outer loop
         vertex 1.608000e+01 5.347144e+01 2.767552e+01
         vertex 1.608000e+01 5.331346e+01 2.774919e+01
         vertex 1.608000e+01 5.297144e+01 2.680949e+01
      endloop
   endfacet
   facet normal 1.000000e+00 0.000000e+00 0.000000e+00
      outer loop
         vertex 1.608000e+01 5.395624e+01 2.698314e+01
         vertex 1.608000e+01 5.391113e+01 2.715151e+01
         vertex 1.608000e+01 5.297144e+01 2.680949e+01
      endloop
   endfacet
   facet normal 1.000000e+00 0.000000e+00 0.000000e+00
      outer loop
         vertex 1.608000e+01 5.391113e+01 2.715151e+01
         vertex 1.608000e+01 5.383746e+01 2.730949e+01
         vertex 1.608000e+01 5.297144e+01 2.680949e+01
      endloop
   endfacet
   facet normal 1.000000e+00 0.000000e+00 0.000000e+00
      outer loop
         vertex 1.608000e+01 5.383746e+01 2.730949e+01
         vertex 1.608000e+01 5.373748e+01 2.745228e+01
         vertex 1.608000e+01 5.297144e+01 2.680949e+01
      endloop
   endfacet
   facet normal 1.000000e+00 0.000000e+00 -0.000000e+00
      outer loop
         vertex 1.608000e+01 5.391113e+01 2.646747e+01
         vertex 1.608000e+01 5.395624e+01 2.663584e+01
         vertex 1.608000e+01 5.297144e+01 2.680949e+01
      endloop
   endfacet
   facet normal 1.000000e+00 0.000000e+00 -0.000000e+00
      outer loop
         vertex 1.608000e+01 5.395624e+01 2.663584e+01
         vertex 1.608000e+01 5.397144e+01 2.680949e+01
         vertex 1.608000e+01 5.297144e+01 2.680949e+01
      endloop
   endfacet
   facet normal 1.000000e+00 0.000000e+00 0.000000e+00
      outer loop
         vertex 1.608000e+01 5.397144e+01 2.680949e+01
         vertex 1.608000e+01 5.395624e+01 2.698314e+01
         vertex 1.608000e+01 5.297144e+01 2.680949e+01
      endloop
   endfacet
   facet normal 1.000000e+00 0.000000e+00 -0.000000e+00
      outer loop
         vertex 1.608000e+01 5.361422e+01 2.604345e+01
         vertex 1.608000e+01 5.373748e+01 2.616671e+01
         vertex 1.608000e+01 5.297144e+01 2.680949e+01
      endloop
   endfacet
   facet normal 1.000000e+00 0.000000e+00 -0.000000e+00
      outer loop
         vertex 1.608000e+01 5.373748e+01 2.616671e+01
         vertex 1.608000e+01 5.383746e+01 2.630949e+01
         vertex 1.608000e+01 5.297144e+01 2.680949e+01
      endloop
   endfacet
   facet normal 1.000000e+00 0.000000e+00 -0.000000e+00
      outer loop
         vertex 1.608000e+01 5.383746e+01 2.630949e+01
         vertex 1.608000e+01 5.391113e+01 2.646747e+01
         vertex 1.608000e+01 5.297144e+01 2.680949e+01
      endloop
   endfacet
   facet normal 1.000000e+00 0.000000e+00 -0.000000e+00
      outer loop
         vertex 1.608000e+01 5.314508e+01 2.582468e+01
         vertex 1.608000e+01 5.331346e+01 2.586980e+01
         vertex 1.608000e+01 5.297144e+01 2.680949e+01
      endloop
   endfacet
   facet normal 1.000000e+00 0.000000e+00 -0.000000e+00
      outer loop
         vertex 1.608000e+01 5.331346e+01 2.586980e+01
         vertex 1.608000e+01 5.347144e+01 2.594347e+01
         vertex 1.608000e+01 5.297144e+01 2.680949e+01
      endloop
   endfacet
   facet normal 1.000000e+00 0.000000e+00 -0.000000e+00
      outer loop
         vertex 1.608000e+01 5.347144e+01 2.594347e+01
         vertex 1.608000e+01 5.361422e+01 2.604345e+01
         vertex 1.608000e+01 5.297144e+01 2.680949e+01
      endloop
   endfacet
   facet normal 0.000000e+00 8.715613e-02 9.961947e-01
      outer loop
         vertex 1.608000e+01 5.314508e+01 2.779430e+01
         vertex 7.999968e-02 5.314508e+01 2.779430e+01
         vertex 7.999968e-02 5.297144e+01 2.780949e+01
      endloop
   endfacet
   facet normal 0.000000e+00 8.715613e-02 9.961947e-01
      outer loop
         vertex 1.608000e+01 5.297144e+01 2.780949e+01
         vertex 1.608000e+01 5.314508e+01 2.779430e+01
         vertex 7.999968e-02 5.297144e+01 2.780949e+01
      endloop
   endfacet
   facet normal 0.000000e+00 8.715613e-02 -9.961947e-01
      outer loop
         vertex 7.999968e-02 5.314508e+01 2.582468e+01
         vertex 1.608000e+01 5.297144e+01 2.580949e+01
         vertex 7.999968e-02 5.297144e+01 2.580949e+01
      endloop
   endfacet
   facet normal 0.000000e+00 8.715613e-02 -9.961947e-01
      outer loop
         vertex 7.999968e-02 5.314508e+01 2.582468e+01
         vertex 1.608000e+01 5.314508e+01 2.582468e+01
         vertex 1.608000e+01 5.297144e+01 2.580949e+01
      endloop
   endfacet
   facet normal 0.000000e+00 2.588190e-01 -9.659258e-01
      outer loop
         vertex 7.999968e-02 5.331346e+01 2.586980e+01
         vertex 1.608000e+01 5.314508e+01 2.582468e+01
         vertex 7.999968e-02 5.314508e+01 2.582468e+01
      endloop
   endfacet
   facet normal 0.000000e+00 2.588190e-01 -9.659258e-01
      outer loop
         vertex 7.999968e-02 5.331346e+01 2.586980e+01
         vertex 1.608000e+01 5.331346e+01 2.586980e+01
         vertex 1.608000e+01 5.314508e+01 2.582468e+01
      endloop
   endfacet
   facet normal 0.000000e+00 2.588190e-01 9.659258e-01
      outer loop
         vertex 1.608000e+01 5.314508e+01 2.779430e+01
         vertex 1.608000e+01 5.331346e+01 2.774919e+01
         vertex 7.999968e-02 5.314508e+01 2.779430e+01
      endloop
   endfacet
   facet normal 0.000000e+00 2.588190e-01 9.659258e-01
      outer loop
         vertex 1.608000e+01 5.331346e+01 2.774919e+01
         vertex 7.999968e-02 5.331346e+01 2.774919e+01
         vertex 7.999968e-02 5.314508e+01 2.779430e+01
      endloop
   endfacet
   facet normal 0.000000e+00 4.226182e-01 -9.063078e-01
      outer loop
         vertex 7.999968e-02 5.347144e+01 2.594347e+01
         vertex 1.608000e+01 5.331346e+01 2.586980e+01
         vertex 7.999968e-02 5.331346e+01 2.586980e+01
      endloop
   endfacet
   facet normal 0.000000e+00 4.226182e-01 -9.063078e-01
      outer loop
         vertex 7.999968e-02 5.347144e+01 2.594347e+01
         vertex 1.608000e+01 5.347144e+01 2.594347e+01
         vertex 1.608000e+01 5.331346e+01 2.586980e+01
      endloop
   endfacet
   facet normal 0.000000e+00 4.226182e-01 9.063078e-01
      outer loop
         vertex 1.608000e+01 5.331346e+01 2.774919e+01
         vertex 1.608000e+01 5.347144e+01 2.767552e+01
         vertex 7.999968e-02 5.331346e+01 2.774919e+01
      endloop
   endfacet
   facet normal 0.000000e+00 4.226182e-01 9.063078e-01
      outer loop
         vertex 1.608000e+01 5.347144e+01 2.767552e+01
         vertex 7.999968e-02 5.347144e+01 2.767552e+01
         vertex 7.999968e-02 5.331346e+01 2.774919e+01
      endloop
   endfacet
   facet normal 0.000000e+00 5.735765e-01 -8.191520e-01
      outer loop
         vertex 7.999968e-02 5.361422e+01 2.604345e+01
         vertex 1.608000e+01 5.347144e+01 2.594347e+01
         vertex 7.999968e-02 5.347144e+01 2.594347e+01
      endloop
   endfacet
   facet normal 0.000000e+00 5.735765e-01 -8.191520e-01
      outer loop
         vertex 7.999968e-02 5.361422e+01 2.604345e+01
         vertex 1.608000e+01 5.361422e+01 2.604345e+01
         vertex 1.608000e+01 5.347144e+01 2.594347e+01
      endloop
   endfacet
   facet normal 0.000000e+00 5.735765e-01 8.191520e-01
      outer loop
         vertex 1.608000e+01 5.347144e+01 2.767552e+01
         vertex 1.608000e+01 5.361422e+01 2.757554e+01
         vertex 7.999968e-02 5.347144e+01 2.767552e+01
      endloop
   endfacet
   facet normal 0.000000e+00 5.735765e-01 8.191520e-01
      outer loop
         vertex 1.608000e+01 5.361422e+01 2.757554e+01
         vertex 7.999968e-02 5.361422e+01 2.757554e+01
         vertex 7.999968e-02 5.347144e+01 2.767552e+01
      endloop
   endfacet
   facet normal 0.000000e+00 7.071068e-01 -7.071068e-01
      outer loop
         vertex 7.999968e-02 5.373748e+01 2.616671e+01
         vertex 1.608000e+01 5.361422e+01 2.604345e+01
         vertex 7.999968e-02 5.361422e+01 2.604345e+01
      endloop
   endfacet
   facet normal 0.000000e+00 7.071068e-01 -7.071068e-01
      outer loop
         vertex 7.999968e-02 5.373748e+01 2.616671e+01
         vertex 1.608000e+01 5.373748e+01 2.616671e+01
         vertex 1.608000e+01 5.361422e+01 2.604345e+01
      endloop
   endfacet
   facet normal 0.000000e+00 7.071068e-01 7.071068e-01
      outer loop
         vertex 1.608000e+01 5.361422e+01 2.757554e+01
         vertex 1.608000e+01 5.373748e+01 2.745228e+01
         vertex 7.999968e-02 5.361422e+01 2.757554e+01
      endloop
   endfacet
   facet normal 0.000000e+00 7.071068e-01 7.071068e-01
      outer loop
         vertex 1.608000e+01 5.373748e+01 2.745228e+01
         vertex 7.999968e-02 5.373748e+01 2.745228e+01
         vertex 7.999968e-02 5.361422e+01 2.757554e+01
      endloop
   endfacet
   facet normal 0.000000e+00 8.191520e-01 -5.735765e-01
      outer loop
         vertex 7.999968e-02 5.383746e+01 2.630949e+01
         vertex 1.608000e+01 5.373748e+01 2.616671e+01
         vertex 7.999968e-02 5.373748e+01 2.616671e+01
      endloop
   endfacet
   facet normal 0.000000e+00 8.191520e-01 -5.735765e-01
      outer loop
         vertex 7.999968e-02 5.383746e+01 2.630949e+01
         vertex 1.608000e+01 5.383746e+01 2.630949e+01
         vertex 1.608000e+01 5.373748e+01 2.616671e+01
      endloop
   endfacet
   facet normal 0.000000e+00 8.191520e-01 5.735765e-01
      outer loop
         vertex 1.608000e+01 5.373748e+01 2.745228e+01
         vertex 1.608000e+01 5.383746e+01 2.730949e+01
         vertex 7.999968e-02 5.373748e+01 2.745228e+01
      endloop
   endfacet
   facet normal 0.000000e+00 8.191520e-01 5.735765e-01
      outer loop
         vertex 1.608000e+01 5.383746e+01 2.730949e+01
         vertex 7.999968e-02 5.383746e+01 2.730949e+01
         vertex 7.999968e-02 5.373748e+01 2.745228e+01
      endloop
   endfacet
   facet normal 0.000000e+00 9.063078e-01 -4.226182e-01
      outer loop
         vertex 7.999968e-02 5.391113e+01 2.646747e+01
         vertex 1.608000e+01 5.383746e+01 2.630949e+01
         vertex 7.999968e-02 5.383746e+01 2.630949e+01
      endloop
   endfacet
   facet normal 0.000000e+00 9.063078e-01 -4.226182e-01
      outer loop
         vertex 7.999968e-02 5.391113e+01 2.646747e+01
         vertex 1.608000e+01 5.391113e+01 2.646747e+01
         vertex 1.608000e+01 5.383746e+01 2.630949e+01
      endloop
   endfacet
   facet normal 0.000000e+00 9.063078e-01 4.226182e-01
      outer loop
         vertex 1.608000e+01 5.383746e+01 2.730949e+01
         vertex 1.608000e+01 5.391113e+01 2.715151e+01
         vertex 7.999968e-02 5.383746e+01 2.730949e+01
      endloop
   endfacet
   facet normal 0.000000e+00 9.063078e-01 4.226182e-01
      outer loop
         vertex 1.608000e+01 5.391113e+01 2.715151e+01
         vertex 7.999968e-02 5.391113e+01 2.715151e+01
         vertex 7.999968e-02 5.383746e+01 2.730949e+01
      endloop
   endfacet
   facet normal 0.000000e+00 9.659258e-01 -2.588190e-01
      outer loop
         vertex 7.999968e-02 5.395624e+01 2.663584e+01
         vertex 1.608000e+01 5.391113e+01 2.646747e+01
         vertex 7.999968e-02 5.391113e+01 2.646747e+01
      endloop
   endfacet
   facet normal 0.000000e+00 9.659258e-01 -2.588190e-01
      outer loop
         vertex 7.999968e-02 5.395624e+01 2.663584e+01
         vertex 1.608000e+01 5.395624e+01 2.663584e+01
         vertex 1.608000e+01 5.391113e+01 2.646747e+01
      endloop
   endfacet
   facet normal 0.000000e+00 9.659258e-01 2.588190e-01
      outer loop
         vertex 1.608000e+01 5.391113e+01 2.715151e+01
         vertex 1.608000e+01 5.395624e+01 2.698314e+01
         vertex 7.999968e-02 5.391113e+01 2.715151e+01
      endloop
   endfacet
   facet normal 0.000000e+00 9.659258e-01 2.588190e-01
      outer loop
         vertex 1.608000e+01 5.395624e+01 2.698314e+01
         vertex 7.999968e-02 5.395624e+01 2.698314e+01
         vertex 7.999968e-02 5.391113e+01 2.715151e+01
      endloop
   endfacet
   facet normal 0.000000e+00 9.961947e-01 -8.715613e-02
      outer loop
         vertex 7.999968e-02 5.397144e+01 2.680949e+01
         vertex 1.608000e+01 5.395624e+01 2.663584e+01
         vertex 7.999968e-02 5.395624e+01 2.663584e+01
      endloop
   endfacet
   facet normal 0.000000e+00 9.961947e-01 -8.715613e-02
      outer loop
         vertex 7.999968e-02 5.397144e+01 2.680949e+01
         vertex 1.608000e+01 5.397144e+01 2.680949e+01
         vertex 1.608000e+01 5.395624e+01 2.663584e+01
      endloop
   endfacet
   facet normal 0.000000e+00 9.961947e-01 8.715613e-02
      outer loop
         vertex 1.608000e+01 5.395624e+01 2.698314e+01
         vertex 1.608000e+01 5.397144e+01 2.680949e+01
         vertex 7.999968e-02 5.395624e+01 2.698314e+01
      endloop
   endfacet
   facet normal 0.000000e+00 9.961947e-01 8.715613e-02
      outer loop
         vertex 1.608000e+01 5.397144e+01 2.680949e+01
         vertex 7.999968e-02 5.397144e+01 2.680949e+01
         vertex 7.999968e-02 5.395624e+01 2.698314e+01
      endloop
   endfacet
endsolid