solid Ensamblaje perno 1
   facet normal 0.000000e+00 -9.961947e-01 -8.715613e-02
      outer loop
         vertex 7.999968e-02 4.627482e+01 1.970385e+01
         vertex 1.608000e+01 4.625963e+01 1.987749e+01
         vertex 7.999968e-02 4.625963e+01 1.987749e+01
      endloop
   endfacet
   facet normal 0.000000e+00 -9.961947e-01 8.715613e-02
      outer loop
         vertex 1.608000e+01 4.625963e+01 1.987749e+01
         vertex 1.608000e+01 4.627482e+01 2.005114e+01
         vertex 7.999968e-02 4.625963e+01 1.987749e+01
      endloop
   endfacet
   facet normal 0.000000e+00 -9.961947e-01 8.715613e-02
      outer loop
         vertex 1.608000e+01 4.627482e+01 2.005114e+01
         vertex 7.999968e-02 4.627482e+01 2.005114e+01
         vertex 7.999968e-02 4.625963e+01 1.987749e+01
      endloop
   endfacet
   facet normal -1.000000e+00 0.000000e+00 0.000000e+00
      outer loop
         vertex 7.999968e-02 4.725963e+01 1.987749e+01
         vertex 7.999968e-02 4.627482e+01 1.970385e+01
         vertex 7.999968e-02 4.625963e+01 1.987749e+01
      endloop
   endfacet
   facet normal -1.000000e+00 0.000000e+00 -0.000000e+00
      outer loop
         vertex 7.999968e-02 4.627482e+01 2.005114e+01
         vertex 7.999968e-02 4.725963e+01 1.987749e+01
         vertex 7.999968e-02 4.625963e+01 1.987749e+01
      endloop
   endfacet
   facet normal 0.000000e+00 -9.961947e-01 -8.715613e-02
      outer loop
         vertex 7.999968e-02 4.627482e+01 1.970385e+01
         vertex 1.608000e+01 4.627482e+01 1.970385e+01
         vertex 1.608000e+01 4.625963e+01 1.987749e+01
      endloop
   endfacet
   facet normal 1.000000e+00 0.000000e+00 0.000000e+00
      outer loop
         vertex 1.608000e+01 4.725963e+01 1.987749e+01
         vertex 1.608000e+01 4.627482e+01 2.005114e+01
         vertex 1.608000e+01 4.625963e+01 1.987749e+01
      endloop
   endfacet
   facet normal 1.000000e+00 0.000000e+00 -0.000000e+00
      outer loop
         vertex 1.608000e+01 4.627482e+01 1.970385e+01
         vertex 1.608000e+01 4.725963e+01 1.987749e+01
         vertex 1.608000e+01 4.625963e+01 1.987749e+01
      endloop
   endfacet
   facet normal 0.000000e+00 -9.659258e-01 -2.588190e-01
      outer loop
         vertex 7.999968e-02 4.631994e+01 1.953547e+01
         vertex 1.608000e+01 4.627482e+01 1.970385e+01
         vertex 7.999968e-02 4.627482e+01 1.970385e+01
      endloop
   endfacet
   facet normal -1.000000e+00 0.000000e+00 0.000000e+00
      outer loop
         vertex 7.999968e-02 4.725963e+01 1.987749e+01
         vertex 7.999968e-02 4.631994e+01 1.953547e+01
         vertex 7.999968e-02 4.627482e+01 1.970385e+01
      endloop
   endfacet
   facet normal 0.000000e+00 -9.659258e-01 -2.588190e-01
      outer loop
         vertex 7.999968e-02 4.631994e+01 1.953547e+01
         vertex 1.608000e+01 4.631994e+01 1.953547e+01
         vertex 1.608000e+01 4.627482e+01 1.970385e+01
      endloop
   endfacet
   facet normal 1.000000e+00 0.000000e+00 -0.000000e+00
      outer loop
         vertex 1.608000e+01 4.631994e+01 1.953547e+01
         vertex 1.608000e+01 4.725963e+01 1.987749e+01
         vertex 1.608000e+01 4.627482e+01 1.970385e+01
      endloop
   endfacet
   facet normal 0.000000e+00 -9.659258e-01 2.588190e-01
      outer loop
         vertex 1.608000e+01 4.627482e+01 2.005114e+01
         vertex 1.608000e+01 4.631994e+01 2.021951e+01
         vertex 7.999968e-02 4.627482e+01 2.005114e+01
      endloop
   endfacet
   facet normal 0.000000e+00 -9.659258e-01 2.588190e-01
      outer loop
         vertex 1.608000e+01 4.631994e+01 2.021951e+01
         vertex 7.999968e-02 4.631994e+01 2.021951e+01
         vertex 7.999968e-02 4.627482e+01 2.005114e+01
      endloop
   endfacet
   facet normal -1.000000e+00 0.000000e+00 -0.000000e+00
      outer loop
         vertex 7.999968e-02 4.631994e+01 2.021951e+01
         vertex 7.999968e-02 4.725963e+01 1.987749e+01
         vertex 7.999968e-02 4.627482e+01 2.005114e+01
      endloop
   endfacet
   facet normal 1.000000e+00 0.000000e+00 0.000000e+00
      outer loop
         vertex 1.608000e+01 4.725963e+01 1.987749e+01
         vertex 1.608000e+01 4.631994e+01 2.021951e+01
         vertex 1.608000e+01 4.627482e+01 2.005114e+01
      endloop
   endfacet
   facet normal 0.000000e+00 -9.063078e-01 -4.226182e-01
      outer loop
         vertex 7.999968e-02 4.639361e+01 1.937749e+01
         vertex 1.608000e+01 4.631994e+01 1.953547e+01
         vertex 7.999968e-02 4.631994e+01 1.953547e+01
      endloop
   endfacet
   facet normal -1.000000e+00 0.000000e+00 0.000000e+00
      outer loop
         vertex 7.999968e-02 4.725963e+01 1.987749e+01
         vertex 7.999968e-02 4.639361e+01 1.937749e+01
         vertex 7.999968e-02 4.631994e+01 1.953547e+01
      endloop
   endfacet
   facet normal 0.000000e+00 -9.063078e-01 -4.226182e-01
      outer loop
         vertex 7.999968e-02 4.639361e+01 1.937749e+01
         vertex 1.608000e+01 4.639361e+01 1.937749e+01
         vertex 1.608000e+01 4.631994e+01 1.953547e+01
      endloop
   endfacet
   facet normal 1.000000e+00 0.000000e+00 -0.000000e+00
      outer loop
         vertex 1.608000e+01 4.639361e+01 1.937749e+01
         vertex 1.608000e+01 4.725963e+01 1.987749e+01
         vertex 1.608000e+01 4.631994e+01 1.953547e+01
      endloop
   endfacet
   facet normal 0.000000e+00 -9.063078e-01 4.226182e-01
      outer loop
         vertex 1.608000e+01 4.631994e+01 2.021951e+01
         vertex 1.608000e+01 4.639361e+01 2.037749e+01
         vertex 7.999968e-02 4.631994e+01 2.021951e+01
      endloop
   endfacet
   facet normal 0.000000e+00 -9.063078e-01 4.226182e-01
      outer loop
         vertex 1.608000e+01 4.639361e+01 2.037749e+01
         vertex 7.999968e-02 4.639361e+01 2.037749e+01
         vertex 7.999968e-02 4.631994e+01 2.021951e+01
      endloop
   endfacet
   facet normal -1.000000e+00 0.000000e+00 -0.000000e+00
      outer loop
         vertex 7.999968e-02 4.639361e+01 2.037749e+01
         vertex 7.999968e-02 4.725963e+01 1.987749e+01
         vertex 7.999968e-02 4.631994e+01 2.021951e+01
      endloop
   endfacet
   facet normal 1.000000e+00 0.000000e+00 0.000000e+00
      outer loop
         vertex 1.608000e+01 4.725963e+01 1.987749e+01
         vertex 1.608000e+01 4.639361e+01 2.037749e+01
         vertex 1.608000e+01 4.631994e+01 2.021951e+01
      endloop
   endfacet
   facet normal 0.000000e+00 -8.191520e-01 -5.735765e-01
      outer loop
         vertex 7.999968e-02 4.649359e+01 1.923471e+01
         vertex 1.608000e+01 4.639361e+01 1.937749e+01
         vertex 7.999968e-02 4.639361e+01 1.937749e+01
      endloop
   endfacet
   facet normal -1.000000e+00 0.000000e+00 0.000000e+00
      outer loop
         vertex 7.999968e-02 4.725963e+01 1.987749e+01
         vertex 7.999968e-02 4.649359e+01 1.923471e+01
         vertex 7.999968e-02 4.639361e+01 1.937749e+01
      endloop
   endfacet
   facet normal 0.000000e+00 -8.191520e-01 -5.735765e-01
      outer loop
         vertex 7.999968e-02 4.649359e+01 1.923471e+01
         vertex 1.608000e+01 4.649359e+01 1.923471e+01
         vertex 1.608000e+01 4.639361e+01 1.937749e+01
      endloop
   endfacet
   facet normal 1.000000e+00 0.000000e+00 -0.000000e+00
      outer loop
         vertex 1.608000e+01 4.649359e+01 1.923471e+01
         vertex 1.608000e+01 4.725963e+01 1.987749e+01
         vertex 1.608000e+01 4.639361e+01 1.937749e+01
      endloop
   endfacet
   facet normal 0.000000e+00 -8.191520e-01 5.735765e-01
      outer loop
         vertex 1.608000e+01 4.639361e+01 2.037749e+01
         vertex 1.608000e+01 4.649359e+01 2.052028e+01
         vertex 7.999968e-02 4.639361e+01 2.037749e+01
      endloop
   endfacet
   facet normal 0.000000e+00 -8.191520e-01 5.735765e-01
      outer loop
         vertex 1.608000e+01 4.649359e+01 2.052028e+01
         vertex 7.999968e-02 4.649359e+01 2.052028e+01
         vertex 7.999968e-02 4.639361e+01 2.037749e+01
      endloop
   endfacet
   facet normal -1.000000e+00 0.000000e+00 -0.000000e+00
      outer loop
         vertex 7.999968e-02 4.649359e+01 2.052028e+01
         vertex 7.999968e-02 4.725963e+01 1.987749e+01
         vertex 7.999968e-02 4.639361e+01 2.037749e+01
      endloop
   endfacet
   facet normal 1.000000e+00 0.000000e+00 0.000000e+00
      outer loop
         vertex 1.608000e+01 4.725963e+01 1.987749e+01
         vertex 1.608000e+01 4.649359e+01 2.052028e+01
         vertex 1.608000e+01 4.639361e+01 2.037749e+01
      endloop
   endfacet
   facet normal 0.000000e+00 -7.071068e-01 -7.071068e-01
      outer loop
         vertex 7.999968e-02 4.661684e+01 1.911145e+01
         vertex 1.608000e+01 4.649359e+01 1.923471e+01
         vertex 7.999968e-02 4.649359e+01 1.923471e+01
      endloop
   endfacet
   facet normal -1.000000e+00 0.000000e+00 0.000000e+00
      outer loop
         vertex 7.999968e-02 4.725963e+01 1.987749e+01
         vertex 7.999968e-02 4.661684e+01 1.911145e+01
         vertex 7.999968e-02 4.649359e+01 1.923471e+01
      endloop
   endfacet
   facet normal 0.000000e+00 -7.071068e-01 -7.071068e-01
      outer loop
         vertex 7.999968e-02 4.661684e+01 1.911145e+01
         vertex 1.608000e+01 4.661684e+01 1.911145e+01
         vertex 1.608000e+01 4.649359e+01 1.923471e+01
      endloop
   endfacet
   facet normal 1.000000e+00 0.000000e+00 -0.000000e+00
      outer loop
         vertex 1.608000e+01 4.661684e+01 1.911145e+01
         vertex 1.608000e+01 4.725963e+01 1.987749e+01
         vertex 1.608000e+01 4.649359e+01 1.923471e+01
      endloop
   endfacet
   facet normal 0.000000e+00 -7.071068e-01 7.071068e-01
      outer loop
         vertex 1.608000e+01 4.649359e+01 2.052028e+01
         vertex 1.608000e+01 4.661684e+01 2.064354e+01
         vertex 7.999968e-02 4.649359e+01 2.052028e+01
      endloop
   endfacet
   facet normal 0.000000e+00 -7.071068e-01 7.071068e-01
      outer loop
         vertex 1.608000e+01 4.661684e+01 2.064354e+01
         vertex 7.999968e-02 4.661684e+01 2.064354e+01
         vertex 7.999968e-02 4.649359e+01 2.052028e+01
      endloop
   endfacet
   facet normal -1.000000e+00 0.000000e+00 -0.000000e+00
      outer loop
         vertex 7.999968e-02 4.661684e+01 2.064354e+01
         vertex 7.999968e-02 4.725963e+01 1.987749e+01
         vertex 7.999968e-02 4.649359e+01 2.052028e+01
      endloop
   endfacet
   facet normal 1.000000e+00 0.000000e+00 0.000000e+00
      outer loop
         vertex 1.608000e+01 4.725963e+01 1.987749e+01
         vertex 1.608000e+01 4.661684e+01 2.064354e+01
         vertex 1.608000e+01 4.649359e+01 2.052028e+01
      endloop
   endfacet
   facet normal 0.000000e+00 -5.735765e-01 -8.191520e-01
      outer loop
         vertex 7.999968e-02 4.675963e+01 1.901147e+01
         vertex 1.608000e+01 4.661684e+01 1.911145e+01
         vertex 7.999968e-02 4.661684e+01 1.911145e+01
      endloop
   endfacet
   facet normal -1.000000e+00 0.000000e+00 0.000000e+00
      outer loop
         vertex 7.999968e-02 4.725963e+01 1.987749e+01
         vertex 7.999968e-02 4.675963e+01 1.901147e+01
         vertex 7.999968e-02 4.661684e+01 1.911145e+01
      endloop
   endfacet
   facet normal 0.000000e+00 -5.735765e-01 -8.191520e-01
      outer loop
         vertex 7.999968e-02 4.675963e+01 1.901147e+01
         vertex 1.608000e+01 4.675963e+01 1.901147e+01
         vertex 1.608000e+01 4.661684e+01 1.911145e+01
      endloop
   endfacet
   facet normal 1.000000e+00 0.000000e+00 -0.000000e+00
      outer loop
         vertex 1.608000e+01 4.675963e+01 1.901147e+01
         vertex 1.608000e+01 4.725963e+01 1.987749e+01
         vertex 1.608000e+01 4.661684e+01 1.911145e+01
      endloop
   endfacet
   facet normal 0.000000e+00 -5.735765e-01 8.191520e-01
      outer loop
         vertex 1.608000e+01 4.661684e+01 2.064354e+01
         vertex 1.608000e+01 4.675963e+01 2.074352e+01
         vertex 7.999968e-02 4.661684e+01 2.064354e+01
      endloop
   endfacet
   facet normal 0.000000e+00 -5.735765e-01 8.191520e-01
      outer loop
         vertex 1.608000e+01 4.675963e+01 2.074352e+01
         vertex 7.999968e-02 4.675963e+01 2.074352e+01
         vertex 7.999968e-02 4.661684e+01 2.064354e+01
      endloop
   endfacet
   facet normal -1.000000e+00 0.000000e+00 -0.000000e+00
      outer loop
         vertex 7.999968e-02 4.675963e+01 2.074352e+01
         vertex 7.999968e-02 4.725963e+01 1.987749e+01
         vertex 7.999968e-02 4.661684e+01 2.064354e+01
      endloop
   endfacet
   facet normal 1.000000e+00 0.000000e+00 0.000000e+00
      outer loop
         vertex 1.608000e+01 4.725963e+01 1.987749e+01
         vertex 1.608000e+01 4.675963e+01 2.074352e+01
         vertex 1.608000e+01 4.661684e+01 2.064354e+01
      endloop
   endfacet
   facet normal 0.000000e+00 -4.226182e-01 -9.063078e-01
      outer loop
         vertex 7.999968e-02 4.691761e+01 1.893780e+01
         vertex 1.608000e+01 4.675963e+01 1.901147e+01
         vertex 7.999968e-02 4.675963e+01 1.901147e+01
      endloop
   endfacet
   facet normal -1.000000e+00 0.000000e+00 0.000000e+00
      outer loop
         vertex 7.999968e-02 4.725963e+01 1.987749e+01
         vertex 7.999968e-02 4.691761e+01 1.893780e+01
         vertex 7.999968e-02 4.675963e+01 1.901147e+01
      endloop
   endfacet
   facet normal 0.000000e+00 -4.226182e-01 -9.063078e-01
      outer loop
         vertex 7.999968e-02 4.691761e+01 1.893780e+01
         vertex 1.608000e+01 4.691761e+01 1.893780e+01
         vertex 1.608000e+01 4.675963e+01 1.901147e+01
      endloop
   endfacet
   facet normal 1.000000e+00 0.000000e+00 -0.000000e+00
      outer loop
         vertex 1.608000e+01 4.691761e+01 1.893780e+01
         vertex 1.608000e+01 4.725963e+01 1.987749e+01
         vertex 1.608000e+01 4.675963e+01 1.901147e+01
      endloop
   endfacet
   facet normal 0.000000e+00 -4.226182e-01 9.063078e-01
      outer loop
         vertex 1.608000e+01 4.675963e+01 2.074352e+01
         vertex 1.608000e+01 4.691761e+01 2.081719e+01
         vertex 7.999968e-02 4.675963e+01 2.074352e+01
      endloop
   endfacet
   facet normal 0.000000e+00 -4.226182e-01 9.063078e-01
      outer loop
         vertex 1.608000e+01 4.691761e+01 2.081719e+01
         vertex 7.999968e-02 4.691761e+01 2.081719e+01
         vertex 7.999968e-02 4.675963e+01 2.074352e+01
      endloop
   endfacet
   facet normal -1.000000e+00 0.000000e+00 -0.000000e+00
      outer loop
         vertex 7.999968e-02 4.691761e+01 2.081719e+01
         vertex 7.999968e-02 4.725963e+01 1.987749e+01
         vertex 7.999968e-02 4.675963e+01 2.074352e+01
      endloop
   endfacet
   facet normal 1.000000e+00 0.000000e+00 0.000000e+00
      outer loop
         vertex 1.608000e+01 4.725963e+01 1.987749e+01
         vertex 1.608000e+01 4.691761e+01 2.081719e+01
         vertex 1.608000e+01 4.675963e+01 2.074352e+01
      endloop
   endfacet
   facet normal 0.000000e+00 -2.588190e-01 -9.659258e-01
      outer loop
         vertex 7.999968e-02 4.708598e+01 1.889269e+01
         vertex 1.608000e+01 4.691761e+01 1.893780e+01
         vertex 7.999968e-02 4.691761e+01 1.893780e+01
      endloop
   endfacet
   facet normal -1.000000e+00 0.000000e+00 0.000000e+00
      outer loop
         vertex 7.999968e-02 4.725963e+01 1.987749e+01
         vertex 7.999968e-02 4.708598e+01 1.889269e+01
         vertex 7.999968e-02 4.691761e+01 1.893780e+01
      endloop
   endfacet
   facet normal 0.000000e+00 -2.588190e-01 -9.659258e-01
      outer loop
         vertex 7.999968e-02 4.708598e+01 1.889269e+01
         vertex 1.608000e+01 4.708598e+01 1.889269e+01
         vertex 1.608000e+01 4.691761e+01 1.893780e+01
      endloop
   endfacet
   facet normal 1.000000e+00 0.000000e+00 -0.000000e+00
      outer loop
         vertex 1.608000e+01 4.708598e+01 1.889269e+01
         vertex 1.608000e+01 4.725963e+01 1.987749e+01
         vertex 1.608000e+01 4.691761e+01 1.893780e+01
      endloop
   endfacet
   facet normal 0.000000e+00 -2.588190e-01 9.659258e-01
      outer loop
         vertex 1.608000e+01 4.691761e+01 2.081719e+01
         vertex 1.608000e+01 4.708598e+01 2.086230e+01
         vertex 7.999968e-02 4.691761e+01 2.081719e+01
      endloop
   endfacet
   facet normal 0.000000e+00 -2.588190e-01 9.659258e-01
      outer loop
         vertex 1.608000e+01 4.708598e+01 2.086230e+01
         vertex 7.999968e-02 4.708598e+01 2.086230e+01
         vertex 7.999968e-02 4.691761e+01 2.081719e+01
      endloop
   endfacet
   facet normal -1.000000e+00 0.000000e+00 -0.000000e+00
      outer loop
         vertex 7.999968e-02 4.708598e+01 2.086230e+01
         vertex 7.999968e-02 4.725963e+01 1.987749e+01
         vertex 7.999968e-02 4.691761e+01 2.081719e+01
      endloop
   endfacet
   facet normal 1.000000e+00 0.000000e+00 0.000000e+00
      outer loop
         vertex 1.608000e+01 4.725963e+01 1.987749e+01
         vertex 1.608000e+01 4.708598e+01 2.086230e+01
         vertex 1.608000e+01 4.691761e+01 2.081719e+01
      endloop
   endfacet
   facet normal 0.000000e+00 -8.715613e-02 -9.961947e-01
      outer loop
         vertex 7.999968e-02 4.725963e+01 1.887749e+01
         vertex 1.608000e+01 4.708598e+01 1.889269e+01
         vertex 7.999968e-02 4.708598e+01 1.889269e+01
      endloop
   endfacet
   facet normal -1.000000e+00 0.000000e+00 -0.000000e+00
      outer loop
         vertex 7.999968e-02 4.725963e+01 1.987749e+01
         vertex 7.999968e-02 4.725963e+01 1.887749e+01
         vertex 7.999968e-02 4.708598e+01 1.889269e+01
      endloop
   endfacet
   facet normal 0.000000e+00 -8.715613e-02 -9.961947e-01
      outer loop
         vertex 7.999968e-02 4.725963e+01 1.887749e+01
         vertex 1.608000e+01 4.725963e+01 1.887749e+01
         vertex 1.608000e+01 4.708598e+01 1.889269e+01
      endloop
   endfacet
   facet normal 1.000000e+00 0.000000e+00 0.000000e+00
      outer loop
         vertex 1.608000e+01 4.725963e+01 1.887749e+01
         vertex 1.608000e+01 4.725963e+01 1.987749e+01
         vertex 1.608000e+01 4.708598e+01 1.889269e+01
      endloop
   endfacet
   facet normal 0.000000e+00 -8.715613e-02 9.961947e-01
      outer loop
         vertex 1.608000e+01 4.708598e+01 2.086230e+01
         vertex 1.608000e+01 4.725963e+01 2.087749e+01
         vertex 7.999968e-02 4.708598e+01 2.086230e+01
      endloop
   endfacet
   facet normal 0.000000e+00 -8.715613e-02 9.961947e-01
      outer loop
         vertex 1.608000e+01 4.725963e+01 2.087749e+01
         vertex 7.999968e-02 4.725963e+01 2.087749e+01
         vertex 7.999968e-02 4.708598e+01 2.086230e+01
      endloop
   endfacet
   facet normal -1.000000e+00 0.000000e+00 -0.000000e+00
      outer loop
         vertex 7.999968e-02 4.725963e+01 2.087749e+01
         vertex 7.999968e-02 4.725963e+01 1.987749e+01
         vertex 7.999968e-02 4.708598e+01 2.086230e+01
      endloop
   endfacet
   facet normal 1.000000e+00 0.000000e+00 -0.000000e+00
      outer loop
         vertex 1.608000e+01 4.725963e+01 1.987749e+01
         vertex 1.608000e+01 4.725963e+01 2.087749e+01
         vertex 1.608000e+01 4.708598e+01 2.086230e+01
      endloop
   endfacet
   facet normal -1.000000e+00 -0.000000e+00 0.000000e+00
      outer loop
         vertex 7.999968e-02 4.760165e+01 1.893780e+01
         vertex 7.999968e-02 4.743328e+01 1.889269e+01
         vertex 7.999968e-02 4.725963e+01 1.987749e+01
      endloop
   endfacet
   facet normal -1.000000e+00 -0.000000e+00 0.000000e+00
      outer loop
         vertex 7.999968e-02 4.743328e+01 1.889269e+01
         vertex 7.999968e-02 4.725963e+01 1.887749e+01
         vertex 7.999968e-02 4.725963e+01 1.987749e+01
      endloop
   endfacet
   facet normal -1.000000e+00 -0.000000e+00 0.000000e+00
      outer loop
         vertex 7.999968e-02 4.802568e+01 1.923471e+01
         vertex 7.999968e-02 4.790242e+01 1.911145e+01
         vertex 7.999968e-02 4.725963e+01 1.987749e+01
      endloop
   endfacet
   facet normal -1.000000e+00 -0.000000e+00 0.000000e+00
      outer loop
         vertex 7.999968e-02 4.790242e+01 1.911145e+01
         vertex 7.999968e-02 4.775963e+01 1.901147e+01
         vertex 7.999968e-02 4.725963e+01 1.987749e+01
      endloop
   endfacet
   facet normal -1.000000e+00 -0.000000e+00 0.000000e+00
      outer loop
         vertex 7.999968e-02 4.775963e+01 1.901147e+01
         vertex 7.999968e-02 4.760165e+01 1.893780e+01
         vertex 7.999968e-02 4.725963e+01 1.987749e+01
      endloop
   endfacet
   facet normal -1.000000e+00 -0.000000e+00 0.000000e+00
      outer loop
         vertex 7.999968e-02 4.824444e+01 1.970385e+01
         vertex 7.999968e-02 4.819932e+01 1.953547e+01
         vertex 7.999968e-02 4.725963e+01 1.987749e+01
      endloop
   endfacet
   facet normal -1.000000e+00 -0.000000e+00 0.000000e+00
      outer loop
         vertex 7.999968e-02 4.819932e+01 1.953547e+01
         vertex 7.999968e-02 4.812566e+01 1.937749e+01
         vertex 7.999968e-02 4.725963e+01 1.987749e+01
      endloop
   endfacet
   facet normal -1.000000e+00 -0.000000e+00 0.000000e+00
      outer loop
         vertex 7.999968e-02 4.812566e+01 1.937749e+01
         vertex 7.999968e-02 4.802568e+01 1.923471e+01
         vertex 7.999968e-02 4.725963e+01 1.987749e+01
      endloop
   endfacet
   facet normal -1.000000e+00 0.000000e+00 -0.000000e+00
      outer loop
         vertex 7.999968e-02 4.819932e+01 2.021951e+01
         vertex 7.999968e-02 4.824444e+01 2.005114e+01
         vertex 7.999968e-02 4.725963e+01 1.987749e+01
      endloop
   endfacet
   facet normal -1.000000e+00 0.000000e+00 -0.000000e+00
      outer loop
         vertex 7.999968e-02 4.824444e+01 2.005114e+01
         vertex 7.999968e-02 4.825963e+01 1.987749e+01
         vertex 7.999968e-02 4.725963e+01 1.987749e+01
      endloop
   endfacet
   facet normal -1.000000e+00 0.000000e+00 0.000000e+00
      outer loop
         vertex 7.999968e-02 4.825963e+01 1.987749e+01
         vertex 7.999968e-02 4.824444e+01 1.970385e+01
         vertex 7.999968e-02 4.725963e+01 1.987749e+01
      endloop
   endfacet
   facet normal -1.000000e+00 0.000000e+00 -0.000000e+00
      outer loop
         vertex 7.999968e-02 4.790242e+01 2.064354e+01
         vertex 7.999968e-02 4.802568e+01 2.052028e+01
         vertex 7.999968e-02 4.725963e+01 1.987749e+01
      endloop
   endfacet
   facet normal -1.000000e+00 0.000000e+00 -0.000000e+00
      outer loop
         vertex 7.999968e-02 4.802568e+01 2.052028e+01
         vertex 7.999968e-02 4.812566e+01 2.037749e+01
         vertex 7.999968e-02 4.725963e+01 1.987749e+01
      endloop
   endfacet
   facet normal -1.000000e+00 0.000000e+00 -0.000000e+00
      outer loop
         vertex 7.999968e-02 4.812566e+01 2.037749e+01
         vertex 7.999968e-02 4.819932e+01 2.021951e+01
         vertex 7.999968e-02 4.725963e+01 1.987749e+01
      endloop
   endfacet
   facet normal -1.000000e+00 0.000000e+00 -0.000000e+00
      outer loop
         vertex 7.999968e-02 4.743328e+01 2.086230e+01
         vertex 7.999968e-02 4.760165e+01 2.081719e+01
         vertex 7.999968e-02 4.725963e+01 1.987749e+01
      endloop
   endfacet
   facet normal -1.000000e+00 0.000000e+00 -0.000000e+00
      outer loop
         vertex 7.999968e-02 4.760165e+01 2.081719e+01
         vertex 7.999968e-02 4.775963e+01 2.074352e+01
         vertex 7.999968e-02 4.725963e+01 1.987749e+01
      endloop
   endfacet
   facet normal -1.000000e+00 0.000000e+00 -0.000000e+00
      outer loop
         vertex 7.999968e-02 4.775963e+01 2.074352e+01
         vertex 7.999968e-02 4.790242e+01 2.064354e+01
         vertex 7.999968e-02 4.725963e+01 1.987749e+01
      endloop
   endfacet
   facet normal -1.000000e+00 0.000000e+00 0.000000e+00
      outer loop
         vertex 7.999968e-02 4.725963e+01 2.087749e+01
         vertex 7.999968e-02 4.743328e+01 2.086230e+01
         vertex 7.999968e-02 4.725963e+01 1.987749e+01
      endloop
   endfacet
   facet normal 1.000000e+00 0.000000e+00 -0.000000e+00
      outer loop
         vertex 1.608000e+01 4.725963e+01 1.887749e+01
         vertex 1.608000e+01 4.743328e+01 1.889269e+01
         vertex 1.608000e+01 4.725963e+01 1.987749e+01
      endloop
   endfacet
   facet normal 1.000000e+00 0.000000e+00 0.000000e+00
      outer loop
         vertex 1.608000e+01 4.760165e+01 2.081719e+01
         vertex 1.608000e+01 4.743328e+01 2.086230e+01
         vertex 1.608000e+01 4.725963e+01 1.987749e+01
      endloop
   endfacet
   facet normal 1.000000e+00 0.000000e+00 0.000000e+00
      outer loop
         vertex 1.608000e+01 4.743328e+01 2.086230e+01
         vertex 1.608000e+01 4.725963e+01 2.087749e+01
         vertex 1.608000e+01 4.725963e+01 1.987749e+01
      endloop
   endfacet
   facet normal 1.000000e+00 0.000000e+00 0.000000e+00
      outer loop
         vertex 1.608000e+01 4.802568e+01 2.052028e+01
         vertex 1.608000e+01 4.790242e+01 2.064354e+01
         vertex 1.608000e+01 4.725963e+01 1.987749e+01
      endloop
   endfacet
   facet normal 1.000000e+00 0.000000e+00 0.000000e+00
      outer loop
         vertex 1.608000e+01 4.790242e+01 2.064354e+01
         vertex 1.608000e+01 4.775963e+01 2.074352e+01
         vertex 1.608000e+01 4.725963e+01 1.987749e+01
      endloop
   endfacet
   facet normal 1.000000e+00 0.000000e+00 0.000000e+00
      outer loop
         vertex 1.608000e+01 4.775963e+01 2.074352e+01
         vertex 1.608000e+01 4.760165e+01 2.081719e+01
         vertex 1.608000e+01 4.725963e+01 1.987749e+01
      endloop
   endfacet
   facet normal 1.000000e+00 0.000000e+00 0.000000e+00
      outer loop
         vertex 1.608000e+01 4.824444e+01 2.005114e+01
         vertex 1.608000e+01 4.819932e+01 2.021951e+01
         vertex 1.608000e+01 4.725963e+01 1.987749e+01
      endloop
   endfacet
   facet normal 1.000000e+00 0.000000e+00 0.000000e+00
      outer loop
         vertex 1.608000e+01 4.819932e+01 2.021951e+01
         vertex 1.608000e+01 4.812566e+01 2.037749e+01
         vertex 1.608000e+01 4.725963e+01 1.987749e+01
      endloop
   endfacet
   facet normal 1.000000e+00 0.000000e+00 0.000000e+00
      outer loop
         vertex 1.608000e+01 4.812566e+01 2.037749e+01
         vertex 1.608000e+01 4.802568e+01 2.052028e+01
         vertex 1.608000e+01 4.725963e+01 1.987749e+01
      endloop
   endfacet
   facet normal 1.000000e+00 0.000000e+00 -0.000000e+00
      outer loop
         vertex 1.608000e+01 4.819932e+01 1.953547e+01
         vertex 1.608000e+01 4.824444e+01 1.970385e+01
         vertex 1.608000e+01 4.725963e+01 1.987749e+01
      endloop
   endfacet
   facet normal 1.000000e+00 0.000000e+00 -0.000000e+00
      outer loop
         vertex 1.608000e+01 4.824444e+01 1.970385e+01
         vertex 1.608000e+01 4.825963e+01 1.987749e+01
         vertex 1.608000e+01 4.725963e+01 1.987749e+01
      endloop
   endfacet
   facet normal 1.000000e+00 0.000000e+00 0.000000e+00
      outer loop
         vertex 1.608000e+01 4.825963e+01 1.987749e+01
         vertex 1.608000e+01 4.824444e+01 2.005114e+01
         vertex 1.608000e+01 4.725963e+01 1.987749e+01
      endloop
   endfacet
   facet normal 1.000000e+00 0.000000e+00 -0.000000e+00
      outer loop
         vertex 1.608000e+01 4.790242e+01 1.911145e+01
         vertex 1.608000e+01 4.802568e+01 1.923471e+01
         vertex 1.608000e+01 4.725963e+01 1.987749e+01
      endloop
   endfacet
   facet normal 1.000000e+00 0.000000e+00 -0.000000e+00
      outer loop
         vertex 1.608000e+01 4.802568e+01 1.923471e+01
         vertex 1.608000e+01 4.812566e+01 1.937749e+01
         vertex 1.608000e+01 4.725963e+01 1.987749e+01
      endloop
   endfacet
   facet normal 1.000000e+00 0.000000e+00 -0.000000e+00
      outer loop
         vertex 1.608000e+01 4.812566e+01 1.937749e+01
         vertex 1.608000e+01 4.819932e+01 1.953547e+01
         vertex 1.608000e+01 4.725963e+01 1.987749e+01
      endloop
   endfacet
   facet normal 1.000000e+00 0.000000e+00 -0.000000e+00
      outer loop
         vertex 1.608000e+01 4.743328e+01 1.889269e+01
         vertex 1.608000e+01 4.760165e+01 1.893780e+01
         vertex 1.608000e+01 4.725963e+01 1.987749e+01
      endloop
   endfacet
   facet normal 1.000000e+00 0.000000e+00 -0.000000e+00
      outer loop
         vertex 1.608000e+01 4.760165e+01 1.893780e+01
         vertex 1.608000e+01 4.775963e+01 1.901147e+01
         vertex 1.608000e+01 4.725963e+01 1.987749e+01
      endloop
   endfacet
   facet normal 1.000000e+00 0.000000e+00 -0.000000e+00
      outer loop
         vertex 1.608000e+01 4.775963e+01 1.901147e+01
         vertex 1.608000e+01 4.790242e+01 1.911145e+01
         vertex 1.608000e+01 4.725963e+01 1.987749e+01
      endloop
   endfacet
   facet normal 0.000000e+00 8.715613e-02 9.961947e-01
      outer loop
         vertex 1.608000e+01 4.743328e+01 2.086230e+01
         vertex 7.999968e-02 4.743328e+01 2.086230e+01
         vertex 7.999968e-02 4.725963e+01 2.087749e+01
      endloop
   endfacet
   facet normal 0.000000e+00 8.715613e-02 9.961947e-01
      outer loop
         vertex 1.608000e+01 4.725963e+01 2.087749e+01
         vertex 1.608000e+01 4.743328e+01 2.086230e+01
         vertex 7.999968e-02 4.725963e+01 2.087749e+01
      endloop
   endfacet
   facet normal 0.000000e+00 8.715613e-02 -9.961947e-01
      outer loop
         vertex 7.999968e-02 4.743328e+01 1.889269e+01
         vertex 1.608000e+01 4.725963e+01 1.887749e+01
         vertex 7.999968e-02 4.725963e+01 1.887749e+01
      endloop
   endfacet
   facet normal 0.000000e+00 8.715613e-02 -9.961947e-01
      outer loop
         vertex 7.999968e-02 4.743328e+01 1.889269e+01
         vertex 1.608000e+01 4.743328e+01 1.889269e+01
         vertex 1.608000e+01 4.725963e+01 1.887749e+01
      endloop
   endfacet
   facet normal 0.000000e+00 2.588190e-01 -9.659258e-01
      outer loop
         vertex 7.999968e-02 4.760165e+01 1.893780e+01
         vertex 1.608000e+01 4.743328e+01 1.889269e+01
         vertex 7.999968e-02 4.743328e+01 1.889269e+01
      endloop
   endfacet
   facet normal 0.000000e+00 2.588190e-01 -9.659258e-01
      outer loop
         vertex 7.999968e-02 4.760165e+01 1.893780e+01
         vertex 1.608000e+01 4.760165e+01 1.893780e+01
         vertex 1.608000e+01 4.743328e+01 1.889269e+01
      endloop
   endfacet
   facet normal 0.000000e+00 2.588190e-01 9.659258e-01
      outer loop
         vertex 1.608000e+01 4.743328e+01 2.086230e+01
         vertex 1.608000e+01 4.760165e+01 2.081719e+01
         vertex 7.999968e-02 4.743328e+01 2.086230e+01
      endloop
   endfacet
   facet normal 0.000000e+00 2.588190e-01 9.659258e-01
      outer loop
         vertex 1.608000e+01 4.760165e+01 2.081719e+01
         vertex 7.999968e-02 4.760165e+01 2.081719e+01
         vertex 7.999968e-02 4.743328e+01 2.086230e+01
      endloop
   endfacet
   facet normal 0.000000e+00 4.226182e-01 -9.063078e-01
      outer loop
         vertex 7.999968e-02 4.775963e+01 1.901147e+01
         vertex 1.608000e+01 4.760165e+01 1.893780e+01
         vertex 7.999968e-02 4.760165e+01 1.893780e+01
      endloop
   endfacet
   facet normal 0.000000e+00 4.226182e-01 -9.063078e-01
      outer loop
         vertex 7.999968e-02 4.775963e+01 1.901147e+01
         vertex 1.608000e+01 4.775963e+01 1.901147e+01
         vertex 1.608000e+01 4.760165e+01 1.893780e+01
      endloop
   endfacet
   facet normal 0.000000e+00 4.226182e-01 9.063078e-01
      outer loop
         vertex 1.608000e+01 4.760165e+01 2.081719e+01
         vertex 1.608000e+01 4.775963e+01 2.074352e+01
         vertex 7.999968e-02 4.760165e+01 2.081719e+01
      endloop
   endfacet
   facet normal 0.000000e+00 4.226182e-01 9.063078e-01
      outer loop
         vertex 1.608000e+01 4.775963e+01 2.074352e+01
         vertex 7.999968e-02 4.775963e+01 2.074352e+01
         vertex 7.999968e-02 4.760165e+01 2.081719e+01
      endloop
   endfacet
   facet normal 0.000000e+00 5.735765e-01 -8.191520e-01
      outer loop
         vertex 7.999968e-02 4.790242e+01 1.911145e+01
         vertex 1.608000e+01 4.775963e+01 1.901147e+01
         vertex 7.999968e-02 4.775963e+01 1.901147e+01
      endloop
   endfacet
   facet normal 0.000000e+00 5.735765e-01 -8.191520e-01
      outer loop
         vertex 7.999968e-02 4.790242e+01 1.911145e+01
         vertex 1.608000e+01 4.790242e+01 1.911145e+01
         vertex 1.608000e+01 4.775963e+01 1.901147e+01
      endloop
   endfacet
   facet normal 0.000000e+00 5.735765e-01 8.191520e-01
      outer loop
         vertex 1.608000e+01 4.775963e+01 2.074352e+01
         vertex 1.608000e+01 4.790242e+01 2.064354e+01
         vertex 7.999968e-02 4.775963e+01 2.074352e+01
      endloop
   endfacet
   facet normal 0.000000e+00 5.735765e-01 8.191520e-01
      outer loop
         vertex 1.608000e+01 4.790242e+01 2.064354e+01
         vertex 7.999968e-02 4.790242e+01 2.064354e+01
         vertex 7.999968e-02 4.775963e+01 2.074352e+01
      endloop
   endfacet
   facet normal 0.000000e+00 7.071068e-01 -7.071068e-01
      outer loop
         vertex 7.999968e-02 4.802568e+01 1.923471e+01
         vertex 1.608000e+01 4.790242e+01 1.911145e+01
         vertex 7.999968e-02 4.790242e+01 1.911145e+01
      endloop
   endfacet
   facet normal 0.000000e+00 7.071068e-01 -7.071068e-01
      outer loop
         vertex 7.999968e-02 4.802568e+01 1.923471e+01
         vertex 1.608000e+01 4.802568e+01 1.923471e+01
         vertex 1.608000e+01 4.790242e+01 1.911145e+01
      endloop
   endfacet
   facet normal 0.000000e+00 7.071068e-01 7.071068e-01
      outer loop
         vertex 1.608000e+01 4.790242e+01 2.064354e+01
         vertex 1.608000e+01 4.802568e+01 2.052028e+01
         vertex 7.999968e-02 4.790242e+01 2.064354e+01
      endloop
   endfacet
   facet normal 0.000000e+00 7.071068e-01 7.071068e-01
      outer loop
         vertex 1.608000e+01 4.802568e+01 2.052028e+01
         vertex 7.999968e-02 4.802568e+01 2.052028e+01
         vertex 7.999968e-02 4.790242e+01 2.064354e+01
      endloop
   endfacet
   facet normal 0.000000e+00 8.191520e-01 -5.735765e-01
      outer loop
         vertex 7.999968e-02 4.812566e+01 1.937749e+01
         vertex 1.608000e+01 4.802568e+01 1.923471e+01
         vertex 7.999968e-02 4.802568e+01 1.923471e+01
      endloop
   endfacet
   facet normal 0.000000e+00 8.191520e-01 -5.735765e-01
      outer loop
         vertex 7.999968e-02 4.812566e+01 1.937749e+01
         vertex 1.608000e+01 4.812566e+01 1.937749e+01
         vertex 1.608000e+01 4.802568e+01 1.923471e+01
      endloop
   endfacet
   facet normal 0.000000e+00 8.191520e-01 5.735765e-01
      outer loop
         vertex 1.608000e+01 4.802568e+01 2.052028e+01
         vertex 1.608000e+01 4.812566e+01 2.037749e+01
         vertex 7.999968e-02 4.802568e+01 2.052028e+01
      endloop
   endfacet
   facet normal 0.000000e+00 8.191520e-01 5.735765e-01
      outer loop
         vertex 1.608000e+01 4.812566e+01 2.037749e+01
         vertex 7.999968e-02 4.812566e+01 2.037749e+01
         vertex 7.999968e-02 4.802568e+01 2.052028e+01
      endloop
   endfacet
   facet normal 0.000000e+00 9.063078e-01 -4.226182e-01
      outer loop
         vertex 7.999968e-02 4.819932e+01 1.953547e+01
         vertex 1.608000e+01 4.812566e+01 1.937749e+01
         vertex 7.999968e-02 4.812566e+01 1.937749e+01
      endloop
   endfacet
   facet normal 0.000000e+00 9.063078e-01 -4.226182e-01
      outer loop
         vertex 7.999968e-02 4.819932e+01 1.953547e+01
         vertex 1.608000e+01 4.819932e+01 1.953547e+01
         vertex 1.608000e+01 4.812566e+01 1.937749e+01
      endloop
   endfacet
   facet normal 0.000000e+00 9.063078e-01 4.226182e-01
      outer loop
         vertex 1.608000e+01 4.812566e+01 2.037749e+01
         vertex 1.608000e+01 4.819932e+01 2.021951e+01
         vertex 7.999968e-02 4.812566e+01 2.037749e+01
      endloop
   endfacet
   facet normal 0.000000e+00 9.063078e-01 4.226182e-01
      outer loop
         vertex 1.608000e+01 4.819932e+01 2.021951e+01
         vertex 7.999968e-02 4.819932e+01 2.021951e+01
         vertex 7.999968e-02 4.812566e+01 2.037749e+01
      endloop
   endfacet
   facet normal 0.000000e+00 9.659258e-01 -2.588190e-01
      outer loop
         vertex 7.999968e-02 4.824444e+01 1.970385e+01
         vertex 1.608000e+01 4.819932e+01 1.953547e+01
         vertex 7.999968e-02 4.819932e+01 1.953547e+01
      endloop
   endfacet
   facet normal 0.000000e+00 9.659258e-01 -2.588190e-01
      outer loop
         vertex 7.999968e-02 4.824444e+01 1.970385e+01
         vertex 1.608000e+01 4.824444e+01 1.970385e+01
         vertex 1.608000e+01 4.819932e+01 1.953547e+01
      endloop
   endfacet
   facet normal 0.000000e+00 9.659258e-01 2.588190e-01
      outer loop
         vertex 1.608000e+01 4.819932e+01 2.021951e+01
         vertex 1.608000e+01 4.824444e+01 2.005114e+01
         vertex 7.999968e-02 4.819932e+01 2.021951e+01
      endloop
   endfacet
   facet normal 0.000000e+00 9.659258e-01 2.588190e-01
      outer loop
         vertex 1.608000e+01 4.824444e+01 2.005114e+01
         vertex 7.999968e-02 4.824444e+01 2.005114e+01
         vertex 7.999968e-02 4.819932e+01 2.021951e+01
      endloop
   endfacet
   facet normal 0.000000e+00 9.961947e-01 -8.715613e-02
      outer loop
         vertex 7.999968e-02 4.825963e+01 1.987749e+01
         vertex 1.608000e+01 4.824444e+01 1.970385e+01
         vertex 7.999968e-02 4.824444e+01 1.970385e+01
      endloop
   endfacet
   facet normal 0.000000e+00 9.961947e-01 -8.715613e-02
      outer loop
         vertex 7.999968e-02 4.825963e+01 1.987749e+01
         vertex 1.608000e+01 4.825963e+01 1.987749e+01
         vertex 1.608000e+01 4.824444e+01 1.970385e+01
      endloop
   endfacet
   facet normal 0.000000e+00 9.961947e-01 8.715613e-02
      outer loop
         vertex 1.608000e+01 4.824444e+01 2.005114e+01
         vertex 1.608000e+01 4.825963e+01 1.987749e+01
         vertex 7.999968e-02 4.824444e+01 2.005114e+01
      endloop
   endfacet
   facet normal 0.000000e+00 9.961947e-01 8.715613e-02
      outer loop
         vertex 1.608000e+01 4.825963e+01 1.987749e+01
         vertex 7.999968e-02 4.825963e+01 1.987749e+01
         vertex 7.999968e-02 4.824444e+01 2.005114e+01
      endloop
   endfacet
endsolid